<?xml version="1.0" encoding="UTF-8"?>
<!DOCTYPE svg PUBLIC "-//W3C//DTD SVG 1.1//EN" "http://www.w3.org/Graphics/SVG/1.1/DTD/svg11.dtd">
<svg version="1.2" width="215.9mm" height="76.2mm" viewBox="0 0 21590 7620" preserveAspectRatio="xMidYMid" fill-rule="evenodd" stroke-width="28.222" stroke-linejoin="round" xmlns="http://www.w3.org/2000/svg" xmlns:ooo="http://xml.openoffice.org/svg/export" xmlns:xlink="http://www.w3.org/1999/xlink" xmlns:presentation="http://sun.com/xmlns/staroffice/presentation" xmlns:smil="http://www.w3.org/2001/SMIL20/" xmlns:anim="urn:oasis:names:tc:opendocument:xmlns:animation:1.0" xmlns:svg="urn:oasis:names:tc:opendocument:xmlns:svg-compatible:1.0" xml:space="preserve">
 <defs class="ClipPathGroup">
  <clipPath id="presentation_clip_path" clipPathUnits="userSpaceOnUse">
   <rect x="0" y="0" width="21590" height="7620"/>
  </clipPath>
  <clipPath id="presentation_clip_path_shrink" clipPathUnits="userSpaceOnUse">
   <rect x="21" y="7" width="21547" height="7605"/>
  </clipPath>
 </defs>
 <defs class="TextShapeIndex">
  <g ooo:slide="id1" ooo:id-list="id3 id4 id5 id6 id7 id8 id9 id10 id11 id12 id13 id14 id15 id16 id17 id18 id19 id20 id21 id22 id23 id24"/>
 </defs>
 <defs class="EmbeddedBulletChars">
  <g id="bullet-char-template-57356" transform="scale(0.00048828125,-0.00048828125)">
   <path d="M 580,1141 L 1163,571 580,0 -4,571 580,1141 Z"/>
  </g>
  <g id="bullet-char-template-57354" transform="scale(0.00048828125,-0.00048828125)">
   <path d="M 8,1128 L 1137,1128 1137,0 8,0 8,1128 Z"/>
  </g>
  <g id="bullet-char-template-10146" transform="scale(0.00048828125,-0.00048828125)">
   <path d="M 174,0 L 602,739 174,1481 1456,739 174,0 Z M 1358,739 L 309,1346 659,739 1358,739 Z"/>
  </g>
  <g id="bullet-char-template-10132" transform="scale(0.00048828125,-0.00048828125)">
   <path d="M 2015,739 L 1276,0 717,0 1260,543 174,543 174,936 1260,936 717,1481 1274,1481 2015,739 Z"/>
  </g>
  <g id="bullet-char-template-10007" transform="scale(0.00048828125,-0.00048828125)">
   <path d="M 0,-2 C -7,14 -16,27 -25,37 L 356,567 C 262,823 215,952 215,954 215,979 228,992 255,992 264,992 276,990 289,987 310,991 331,999 354,1012 L 381,999 492,748 772,1049 836,1024 860,1049 C 881,1039 901,1025 922,1006 886,937 835,863 770,784 769,783 710,716 594,584 L 774,223 C 774,196 753,168 711,139 L 727,119 C 717,90 699,76 672,76 641,76 570,178 457,381 L 164,-76 C 142,-110 111,-127 72,-127 30,-127 9,-110 8,-76 1,-67 -2,-52 -2,-32 -2,-23 -1,-13 0,-2 Z"/>
  </g>
  <g id="bullet-char-template-10004" transform="scale(0.00048828125,-0.00048828125)">
   <path d="M 285,-33 C 182,-33 111,30 74,156 52,228 41,333 41,471 41,549 55,616 82,672 116,743 169,778 240,778 293,778 328,747 346,684 L 369,508 C 377,444 397,411 428,410 L 1163,1116 C 1174,1127 1196,1133 1229,1133 1271,1133 1292,1118 1292,1087 L 1292,965 C 1292,929 1282,901 1262,881 L 442,47 C 390,-6 338,-33 285,-33 Z"/>
  </g>
  <g id="bullet-char-template-9679" transform="scale(0.00048828125,-0.00048828125)">
   <path d="M 813,0 C 632,0 489,54 383,161 276,268 223,411 223,592 223,773 276,916 383,1023 489,1130 632,1184 813,1184 992,1184 1136,1130 1245,1023 1353,916 1407,772 1407,592 1407,412 1353,268 1245,161 1136,54 992,0 813,0 Z"/>
  </g>
  <g id="bullet-char-template-8226" transform="scale(0.00048828125,-0.00048828125)">
   <path d="M 346,457 C 273,457 209,483 155,535 101,586 74,649 74,723 74,796 101,859 155,911 209,963 273,989 346,989 419,989 480,963 531,910 582,859 608,796 608,723 608,648 583,586 532,535 482,483 420,457 346,457 Z"/>
  </g>
  <g id="bullet-char-template-8211" transform="scale(0.00048828125,-0.00048828125)">
   <path d="M -4,459 L 1135,459 1135,606 -4,606 -4,459 Z"/>
  </g>
  <g id="bullet-char-template-61548" transform="scale(0.00048828125,-0.00048828125)">
   <path d="M 173,740 C 173,903 231,1043 346,1159 462,1274 601,1332 765,1332 928,1332 1067,1274 1183,1159 1299,1043 1357,903 1357,740 1357,577 1299,437 1183,322 1067,206 928,148 765,148 601,148 462,206 346,322 231,437 173,577 173,740 Z"/>
  </g>
 </defs>
 <g>
  <g id="id2" class="Master_Slide">
   <g id="bg-id2" class="Background"/>
   <g id="bo-id2" class="BackgroundObjects"/>
  </g>
 </g>
 <g class="SlideGroup">
  <g>
   <g id="container-id1">
    <g id="id1" class="Slide" clip-path="url(#presentation_clip_path)">
     <g class="Page">
      <g class="Group">
       <g class="com.sun.star.drawing.ClosedBezierShape">
        <g id="id3">
         <rect class="BoundingBox" stroke="none" fill="none" x="1321" y="1866" width="2135" height="2261"/>
         <path fill="rgb(83,31,20)" stroke="none" d="M 3454,2201 C 3343,2090 3231,1978 3119,1866 2632,1866 2144,1866 1657,1866 1545,1978 1434,2090 1322,2201 1322,2731 1322,3261 1322,3791 1434,3902 1545,4014 1657,4126 2144,4126 2632,4126 3119,4126 3231,4014 3343,3902 3454,3791 3454,3645 3454,3499 3454,3353 3432,3330 3409,3308 3386,3285 3227,3285 3067,3285 2908,3285 2885,3308 2863,3330 2840,3353 2840,3400 2840,3446 2840,3493 2813,3520 2786,3547 2759,3573 2511,3573 2262,3573 2014,3573 1988,3548 1962,3522 1937,3496 1937,3163 1937,2830 1937,2496 1962,2470 1988,2445 2014,2419 2262,2419 2511,2419 2759,2419 2786,2446 2813,2473 2840,2499 2840,2546 2840,2593 2840,2639 2863,2662 2885,2685 2908,2707 3067,2707 3227,2707 3386,2707 3409,2685 3432,2662 3454,2639 3454,2493 3454,2347 3454,2201 Z M 1694,1953 C 2157,1953 2619,1953 3082,1953 3177,2048 3272,2144 3367,2239 3367,2360 3367,2481 3367,2602 3361,2608 3355,2614 3349,2621 3214,2621 3080,2621 2945,2621 2939,2614 2933,2608 2927,2602 2927,2555 2927,2509 2927,2462 2883,2419 2840,2375 2796,2332 2523,2332 2250,2332 1977,2332 1934,2374 1892,2417 1850,2459 1850,2817 1850,3175 1850,3533 1892,3576 1934,3618 1977,3660 2250,3660 2523,3660 2796,3660 2840,3617 2883,3573 2927,3530 2927,3483 2927,3437 2927,3390 2933,3384 2939,3378 2945,3372 3080,3372 3214,3372 3349,3372 3355,3378 3361,3384 3367,3390 3367,3511 3367,3632 3367,3753 3272,3849 3177,3944 3082,4039 2619,4039 2157,4039 1694,4039 1599,3944 1504,3849 1409,3753 1409,3249 1409,2744 1409,2239 1504,2144 1599,2048 1694,1953 Z"/>
        </g>
       </g>
       <g class="com.sun.star.drawing.ClosedBezierShape">
        <g id="id4">
         <rect class="BoundingBox" stroke="none" fill="none" x="3908" y="1866" width="2135" height="2261"/>
         <path fill="rgb(83,31,20)" stroke="none" d="M 6041,2201 C 5930,2090 5818,1978 5706,1866 5219,1866 4731,1866 4244,1866 4132,1978 4021,2090 3909,2201 3909,2820 3909,3439 3909,4058 3932,4080 3954,4103 3977,4126 4137,4126 4296,4126 4455,4126 4478,4103 4501,4080 4524,4058 4524,3799 4524,3540 4524,3282 4825,3497 5126,3712 5427,3927 5427,3971 5427,4014 5427,4058 5450,4080 5472,4103 5495,4126 5654,4126 5814,4126 5973,4126 5996,4103 6019,4080 6041,4058 6041,3439 6041,2820 6041,2201 Z M 4281,1953 C 4744,1953 5206,1953 5669,1953 5764,2048 5859,2144 5954,2239 5954,2833 5954,3427 5954,4020 5948,4027 5942,4033 5936,4039 5801,4039 5667,4039 5532,4039 5526,4033 5520,4027 5514,4020 5514,3975 5514,3929 5514,3884 5155,3627 4796,3371 4437,3114 4437,3416 4437,3718 4437,4020 4430,4027 4424,4033 4418,4039 4283,4039 4149,4039 4014,4039 4008,4033 4002,4027 3996,4020 3996,3427 3996,2833 3996,2239 4091,2144 4186,2048 4281,1953 Z M 4437,2658 C 4796,2914 5155,3171 5514,3428 5514,3105 5514,2782 5514,2459 5471,2417 5429,2374 5386,2332 5113,2332 4840,2332 4567,2332 4523,2374 4480,2417 4437,2459 4437,2525 4437,2592 4437,2658 Z M 5427,2496 C 5427,2751 5427,3005 5427,3260 5126,3045 4825,2830 4524,2614 4524,2575 4524,2536 4524,2496 4550,2470 4577,2445 4604,2419 4853,2419 5101,2419 5349,2419 5375,2445 5401,2470 5427,2496 Z"/>
        </g>
       </g>
       <g class="com.sun.star.drawing.ClosedBezierShape">
        <g id="id5">
         <rect class="BoundingBox" stroke="none" fill="none" x="6504" y="1866" width="1936" height="2261"/>
         <path fill="rgb(83,31,20)" stroke="none" d="M 6505,4055 C 6529,4078 6552,4102 6576,4126 7084,4126 7592,4126 8100,4126 8212,4014 8324,3902 8435,3791 8435,3618 8435,3445 8435,3272 8059,3025 7682,2778 7306,2531 7306,2519 7306,2508 7306,2496 7333,2470 7359,2445 7386,2419 7695,2419 8003,2419 8311,2419 8334,2397 8357,2375 8380,2354 8399,2215 8419,2076 8439,1938 8415,1914 8391,1890 8367,1866 7859,1866 7351,1866 6843,1866 6731,1978 6620,2090 6508,2201 6508,2385 6508,2568 6508,2751 6863,2983 7218,3214 7573,3446 7573,3463 7573,3479 7573,3496 7546,3522 7519,3548 7492,3573 7205,3573 6919,3573 6632,3573 6609,3595 6587,3617 6564,3639 6544,3777 6524,3916 6505,4055 Z M 8063,4039 C 7580,4039 7097,4039 6613,4039 6608,4034 6603,4029 6598,4024 6613,3910 6629,3796 6644,3682 6653,3675 6661,3668 6669,3660 6956,3660 7243,3660 7529,3660 7573,3618 7616,3576 7659,3533 7659,3488 7659,3442 7659,3397 7305,3165 6950,2933 6595,2701 6595,2547 6595,2393 6595,2239 6690,2144 6785,2048 6880,1953 7364,1953 7847,1953 8330,1953 8335,1958 8340,1964 8345,1969 8330,2082 8314,2196 8299,2310 8291,2317 8282,2325 8274,2332 7966,2332 7657,2332 7349,2332 7306,2374 7262,2417 7219,2459 7219,2499 7219,2540 7219,2580 7595,2827 7972,3075 8349,3322 8349,3466 8349,3610 8349,3753 8253,3849 8158,3944 8063,4039 Z"/>
        </g>
       </g>
       <g class="com.sun.star.drawing.ClosedBezierShape">
        <g id="id6">
         <rect class="BoundingBox" stroke="none" fill="none" x="8905" y="1866" width="1936" height="2261"/>
         <path fill="rgb(83,31,20)" stroke="none" d="M 8906,4055 C 8930,4078 8953,4102 8977,4126 9485,4126 9993,4126 10501,4126 10613,4014 10725,3902 10836,3791 10836,3618 10836,3445 10836,3272 10460,3025 10083,2778 9707,2531 9707,2519 9707,2508 9707,2496 9734,2470 9760,2445 9787,2419 10096,2419 10404,2419 10712,2419 10735,2397 10758,2375 10781,2354 10800,2215 10820,2076 10840,1938 10816,1914 10792,1890 10768,1866 10260,1866 9752,1866 9244,1866 9132,1978 9021,2090 8909,2201 8909,2385 8909,2568 8909,2751 9264,2983 9619,3214 9974,3446 9974,3463 9974,3479 9974,3496 9947,3522 9920,3548 9893,3573 9606,3573 9320,3573 9033,3573 9010,3595 8988,3617 8965,3639 8945,3777 8925,3916 8906,4055 Z M 10464,4039 C 9981,4039 9498,4039 9014,4039 9009,4034 9004,4029 8999,4024 9014,3910 9030,3796 9045,3682 9054,3675 9062,3668 9070,3660 9357,3660 9644,3660 9930,3660 9974,3618 10017,3576 10060,3533 10060,3488 10060,3442 10060,3397 9706,3165 9351,2933 8996,2701 8996,2547 8996,2393 8996,2239 9091,2144 9186,2048 9281,1953 9765,1953 10248,1953 10731,1953 10736,1958 10741,1964 10746,1969 10731,2082 10715,2196 10700,2310 10692,2317 10683,2325 10675,2332 10367,2332 10058,2332 9750,2332 9707,2374 9663,2417 9620,2459 9620,2499 9620,2540 9620,2580 9996,2827 10373,3075 10750,3322 10750,3466 10750,3610 10750,3753 10654,3849 10559,3944 10464,4039 Z"/>
        </g>
       </g>
       <g class="com.sun.star.drawing.ClosedBezierShape">
        <g id="id7">
         <rect class="BoundingBox" stroke="none" fill="none" x="11308" y="1866" width="1933" height="2261"/>
         <path fill="rgb(83,31,20)" stroke="none" d="M 11309,4058 C 11332,4080 11354,4103 11377,4126 11973,4126 12569,4126 13165,4126 13190,4102 13215,4078 13240,4055 13219,3916 13198,3777 13178,3639 13155,3617 13132,3595 13109,3573 12714,3573 12319,3573 11924,3573 11924,3474 11924,3375 11924,3275 12231,3275 12538,3275 12845,3275 12868,3254 12891,3232 12914,3210 12933,3072 12953,2933 12973,2794 12949,2771 12925,2747 12901,2723 12575,2723 12249,2723 11924,2723 11924,2622 11924,2520 11924,2419 12317,2419 12710,2419 13103,2419 13128,2397 13153,2375 13178,2354 13198,2215 13219,2076 13240,1938 13215,1914 13190,1890 13165,1866 12569,1866 11973,1866 11377,1866 11354,1889 11332,1912 11309,1935 11309,2642 11309,3350 11309,4058 Z M 13128,4039 C 12557,4039 11986,4039 11414,4039 11408,4033 11402,4027 11396,4020 11396,3338 11396,2655 11396,1972 11402,1966 11408,1959 11414,1953 11986,1953 12557,1953 13128,1953 13134,1958 13140,1964 13146,1969 13130,2082 13113,2196 13097,2310 13089,2317 13080,2325 13072,2332 12660,2332 12248,2332 11837,2332 11837,2491 11837,2651 11837,2810 12179,2810 12522,2810 12864,2810 12869,2815 12874,2820 12880,2825 12864,2939 12848,3053 12833,3167 12825,3174 12816,3181 12808,3189 12484,3189 12160,3189 11837,3189 11837,3346 11837,3503 11837,3660 12248,3660 12660,3660 13072,3660 13080,3668 13089,3675 13097,3682 13113,3796 13130,3910 13146,4024 13140,4029 13134,4034 13128,4039 Z"/>
        </g>
       </g>
       <g class="com.sun.star.drawing.ClosedBezierShape">
        <g id="id8">
         <rect class="BoundingBox" stroke="none" fill="none" x="13608" y="1866" width="2042" height="2265"/>
         <path fill="rgb(83,31,20)" stroke="none" d="M 13609,1938 C 13628,2097 13648,2256 13668,2416 13690,2437 13713,2459 13736,2481 13930,2481 14125,2481 14320,2481 14320,3007 14320,3534 14320,4061 14343,4084 14367,4106 14391,4129 14549,4129 14707,4129 14866,4129 14889,4106 14911,4084 14934,4061 14934,3534 14934,3007 14934,2481 15130,2481 15325,2481 15521,2481 15544,2459 15566,2437 15589,2416 15609,2256 15628,2097 15648,1938 15624,1914 15600,1890 15577,1866 14944,1866 14312,1866 13680,1866 13656,1890 13632,1914 13609,1938 Z M 13773,2394 C 13765,2387 13757,2379 13748,2372 13733,2238 13717,2103 13702,1969 13707,1964 13712,1958 13717,1953 14325,1953 14932,1953 15539,1953 15545,1958 15550,1964 15555,1969 15539,2103 15524,2238 15508,2372 15500,2379 15492,2387 15484,2394 15271,2394 15059,2394 14847,2394 14847,2937 14847,3480 14847,4024 14841,4030 14835,4036 14829,4042 14695,4042 14562,4042 14428,4042 14421,4036 14414,4030 14406,4024 14406,3480 14406,2937 14406,2394 14195,2394 13984,2394 13773,2394 Z"/>
        </g>
       </g>
       <g class="com.sun.star.drawing.ClosedBezierShape">
        <g id="id9">
         <rect class="BoundingBox" stroke="none" fill="none" x="15928" y="1866" width="2042" height="2265"/>
         <path fill="rgb(83,31,20)" stroke="none" d="M 15929,1938 C 15948,2097 15968,2256 15988,2416 16010,2437 16033,2459 16056,2481 16250,2481 16445,2481 16640,2481 16640,3007 16640,3534 16640,4061 16663,4084 16687,4106 16711,4129 16869,4129 17027,4129 17186,4129 17209,4106 17231,4084 17254,4061 17254,3534 17254,3007 17254,2481 17450,2481 17645,2481 17841,2481 17864,2459 17886,2437 17909,2416 17929,2256 17948,2097 17968,1938 17944,1914 17920,1890 17897,1866 17264,1866 16632,1866 16000,1866 15976,1890 15952,1914 15929,1938 Z M 16093,2394 C 16085,2387 16077,2379 16068,2372 16053,2238 16037,2103 16022,1969 16027,1964 16032,1958 16037,1953 16645,1953 17252,1953 17859,1953 17865,1958 17870,1964 17875,1969 17859,2103 17844,2238 17828,2372 17820,2379 17812,2387 17804,2394 17591,2394 17379,2394 17167,2394 17167,2937 17167,3480 17167,4024 17161,4030 17155,4036 17149,4042 17015,4042 16882,4042 16748,4042 16741,4036 16734,4030 16726,4024 16726,3480 16726,2937 16726,2394 16515,2394 16304,2394 16093,2394 Z"/>
        </g>
       </g>
       <g class="com.sun.star.drawing.ClosedBezierShape">
        <g id="id10">
         <rect class="BoundingBox" stroke="none" fill="none" x="18340" y="1866" width="1933" height="2261"/>
         <path fill="rgb(83,31,20)" stroke="none" d="M 18341,4058 C 18364,4080 18386,4103 18409,4126 19005,4126 19601,4126 20197,4126 20222,4102 20247,4078 20272,4055 20251,3916 20230,3777 20210,3639 20187,3617 20164,3595 20141,3573 19746,3573 19351,3573 18956,3573 18956,3474 18956,3375 18956,3275 19263,3275 19570,3275 19877,3275 19900,3254 19923,3232 19946,3210 19965,3072 19985,2933 20005,2794 19981,2771 19957,2747 19933,2723 19607,2723 19281,2723 18956,2723 18956,2622 18956,2520 18956,2419 19349,2419 19742,2419 20135,2419 20160,2397 20185,2375 20210,2354 20230,2215 20251,2076 20272,1938 20247,1914 20222,1890 20197,1866 19601,1866 19005,1866 18409,1866 18386,1889 18364,1912 18341,1935 18341,2642 18341,3350 18341,4058 Z M 20160,4039 C 19589,4039 19018,4039 18446,4039 18440,4033 18434,4027 18428,4020 18428,3338 18428,2655 18428,1972 18434,1966 18440,1959 18446,1953 19018,1953 19589,1953 20160,1953 20166,1958 20172,1964 20178,1969 20162,2082 20145,2196 20129,2310 20121,2317 20112,2325 20104,2332 19692,2332 19280,2332 18869,2332 18869,2491 18869,2651 18869,2810 19211,2810 19554,2810 19896,2810 19901,2815 19906,2820 19912,2825 19896,2939 19880,3053 19865,3167 19857,3174 19848,3181 19840,3189 19516,3189 19192,3189 18869,3189 18869,3346 18869,3503 18869,3660 19280,3660 19692,3660 20104,3660 20112,3668 20121,3675 20129,3682 20145,3796 20162,3910 20178,4024 20172,4029 20166,4034 20160,4039 Z"/>
        </g>
       </g>
      </g>
      <g class="Group">
       <g class="com.sun.star.drawing.ClosedBezierShape">
        <g id="id11">
         <rect class="BoundingBox" stroke="none" fill="none" x="5702" y="4570" width="1257" height="1373"/>
         <path fill="rgb(72,27,17)" stroke="none" d="M 5893,5942 C 6184,5942 6476,5942 6767,5942 6831,5879 6894,5815 6958,5752 6958,5421 6958,5091 6958,4761 6894,4697 6831,4634 6767,4570 6476,4570 6184,4570 5893,4570 5829,4634 5766,4697 5702,4761 5702,5091 5702,5421 5702,5752 5766,5815 5829,5879 5893,5942 Z M 6089,5656 C 6068,5635 6047,5614 6026,5593 6026,5369 6026,5144 6026,4919 6047,4898 6068,4877 6089,4856 6250,4856 6410,4856 6571,4856 6592,4877 6613,4898 6634,4919 6634,5144 6634,5368 6634,5593 6613,5614 6592,5635 6571,5656 6410,5656 6250,5656 6089,5656 Z"/>
        </g>
       </g>
       <g class="com.sun.star.drawing.ClosedBezierShape">
        <g id="id12">
         <rect class="BoundingBox" stroke="none" fill="none" x="7298" y="4590" width="1257" height="1334"/>
         <path fill="rgb(72,27,17)" stroke="none" d="M 7325,5923 C 7671,5923 8017,5923 8363,5923 8427,5860 8490,5796 8554,5733 8554,5670 8554,5608 8554,5546 8494,5481 8434,5416 8375,5352 8375,5348 8375,5344 8375,5340 8434,5275 8494,5211 8554,5146 8554,5024 8554,4902 8554,4780 8490,4717 8427,4653 8363,4590 8017,4590 7671,4590 7325,4590 7316,4599 7307,4608 7298,4617 7298,5043 7298,5470 7298,5896 7307,5905 7316,5914 7325,5923 Z M 8169,5207 C 7987,5118 7805,5029 7622,4940 7622,4919 7622,4897 7622,4876 7804,4876 7986,4876 8167,4876 8188,4897 8209,4918 8230,4939 8230,5004 8230,5069 8230,5135 8210,5159 8189,5183 8169,5207 Z M 7622,5637 C 7622,5491 7622,5344 7622,5198 7805,5287 7987,5376 8169,5466 8189,5490 8210,5514 8230,5538 8230,5550 8230,5562 8230,5574 8209,5595 8188,5616 8167,5637 7986,5637 7804,5637 7622,5637 Z"/>
        </g>
       </g>
       <g class="com.sun.star.drawing.ClosedBezierShape">
        <g id="id13">
         <rect class="BoundingBox" stroke="none" fill="none" x="8894" y="4590" width="1257" height="1334"/>
         <path fill="rgb(72,27,17)" stroke="none" d="M 9085,5923 C 9376,5923 9668,5923 9959,5923 10023,5860 10086,5796 10150,5733 10150,5361 10150,4989 10150,4617 10141,4608 10132,4599 10123,4590 10033,4590 9943,4590 9853,4590 9844,4599 9835,4608 9826,4617 9826,4936 9826,5255 9826,5574 9805,5595 9784,5616 9763,5637 9602,5637 9442,5637 9281,5637 9260,5616 9239,5595 9218,5574 9218,5498 9218,5422 9218,5346 9209,5337 9201,5328 9192,5319 9101,5319 9011,5319 8921,5319 8912,5328 8903,5337 8894,5346 8894,5475 8894,5604 8894,5733 8958,5796 9021,5860 9085,5923 Z"/>
        </g>
       </g>
       <g class="com.sun.star.drawing.ClosedBezierShape">
        <g id="id14">
         <rect class="BoundingBox" stroke="none" fill="none" x="10490" y="4589" width="1132" height="1335"/>
         <path fill="rgb(72,27,17)" stroke="none" d="M 10517,5923 C 10875,5923 11233,5923 11592,5923 11601,5914 11611,5905 11620,5896 11609,5819 11597,5741 11586,5664 11576,5655 11567,5646 11557,5637 11310,5637 11062,5637 10814,5637 10814,5559 10814,5480 10814,5401 11008,5401 11202,5401 11395,5401 11405,5392 11414,5383 11424,5374 11435,5297 11445,5219 11456,5142 11447,5133 11439,5124 11430,5115 11225,5115 11019,5115 10814,5115 10814,5035 10814,4956 10814,4876 11061,4876 11308,4876 11555,4876 11566,4867 11576,4858 11586,4849 11597,4772 11609,4694 11620,4617 11611,4608 11601,4599 11592,4590 11233,4590 10875,4590 10517,4590 10508,4599 10499,4608 10490,4617 10490,5043 10490,5470 10490,5896 10499,5905 10508,5914 10517,5923 Z"/>
        </g>
       </g>
       <g class="com.sun.star.drawing.ClosedBezierShape">
        <g id="id15">
         <rect class="BoundingBox" stroke="none" fill="none" x="11963" y="4590" width="1257" height="1334"/>
         <path fill="rgb(72,27,17)" stroke="none" d="M 12154,5923 C 12445,5923 12737,5923 13028,5923 13092,5860 13155,5796 13219,5733 13219,5651 13219,5569 13219,5487 13210,5478 13201,5469 13192,5460 13102,5460 13012,5460 12922,5460 12913,5469 12904,5478 12895,5487 12895,5515 12895,5544 12895,5572 12873,5594 12852,5616 12830,5637 12670,5637 12510,5637 12350,5637 12329,5616 12308,5595 12287,5574 12287,5362 12287,5150 12287,4938 12308,4917 12329,4897 12350,4876 12510,4876 12670,4876 12830,4876 12852,4897 12873,4919 12895,4940 12895,4969 12895,4998 12895,5026 12904,5035 12913,5044 12922,5053 13012,5053 13102,5053 13192,5053 13201,5044 13210,5035 13219,5026 13219,4944 13219,4862 13219,4780 13155,4717 13092,4653 13028,4590 12737,4590 12445,4590 12154,4590 12090,4653 12027,4717 11963,4780 11963,5098 11963,5415 11963,5733 12027,5796 12090,5860 12154,5923 Z"/>
        </g>
       </g>
       <g class="com.sun.star.drawing.ClosedBezierShape">
        <g id="id16">
         <rect class="BoundingBox" stroke="none" fill="none" x="13494" y="4590" width="1196" height="1336"/>
         <path fill="rgb(72,27,17)" stroke="none" d="M 13957,5925 C 14047,5925 14136,5925 14226,5925 14235,5916 14244,5907 14252,5898 14252,5570 14252,5242 14252,4914 14378,4914 14503,4914 14628,4914 14637,4905 14647,4896 14656,4887 14667,4797 14678,4707 14689,4617 14680,4608 14671,4599 14662,4590 14282,4590 13901,4590 13521,4590 13512,4599 13503,4608 13494,4617 13505,4707 13516,4797 13527,4887 13536,4896 13546,4905 13555,4914 13680,4914 13804,4914 13929,4914 13929,5242 13929,5570 13929,5898 13938,5907 13948,5916 13957,5925 Z"/>
        </g>
       </g>
       <g class="com.sun.star.drawing.ClosedBezierShape">
        <g id="id17">
         <rect class="BoundingBox" stroke="none" fill="none" x="14973" y="4589" width="1132" height="1335"/>
         <path fill="rgb(72,27,17)" stroke="none" d="M 15000,5923 C 15304,5923 15608,5923 15913,5923 15976,5860 16040,5796 16103,5733 16103,5635 16103,5538 16103,5441 15872,5289 15641,5138 15410,4986 15410,4970 15410,4954 15410,4938 15431,4917 15453,4897 15474,4876 15664,4876 15853,4876 16042,4876 16052,4867 16061,4858 16071,4849 16082,4772 16092,4694 16103,4617 16094,4608 16085,4599 16076,4590 15772,4590 15468,4590 15164,4590 15100,4653 15037,4717 14973,4780 14973,4884 14973,4987 14973,5091 15191,5233 15409,5375 15627,5517 15627,5536 15627,5555 15627,5574 15605,5595 15584,5616 15562,5637 15386,5637 15210,5637 15034,5637 15025,5646 15015,5655 15006,5664 14995,5741 14984,5819 14973,5896 14982,5905 14991,5914 15000,5923 Z"/>
        </g>
       </g>
       <g class="com.sun.star.drawing.ClosedBezierShape">
        <g id="id18">
         <rect class="BoundingBox" stroke="none" fill="none" x="5596" y="4464" width="1257" height="1373"/>
         <path fill="rgb(179,56,28)" stroke="none" d="M 5787,5836 C 6078,5836 6370,5836 6661,5836 6725,5773 6788,5709 6852,5646 6852,5315 6852,4985 6852,4655 6788,4591 6725,4528 6661,4464 6370,4464 6078,4464 5787,4464 5723,4528 5660,4591 5596,4655 5596,4985 5596,5315 5596,5646 5660,5709 5723,5773 5787,5836 Z M 5983,5550 C 5962,5529 5941,5508 5920,5487 5920,5263 5920,5038 5920,4813 5941,4792 5962,4771 5983,4750 6144,4750 6304,4750 6465,4750 6486,4771 6507,4792 6528,4813 6528,5038 6528,5262 6528,5487 6507,5508 6486,5529 6465,5550 6304,5550 6144,5550 5983,5550 Z"/>
        </g>
       </g>
       <g class="com.sun.star.drawing.ClosedBezierShape">
        <g id="id19">
         <rect class="BoundingBox" stroke="none" fill="none" x="7192" y="4484" width="1257" height="1335"/>
         <path fill="rgb(179,56,28)" stroke="none" d="M 7219,5817 C 7565,5817 7911,5817 8257,5817 8321,5754 8384,5690 8448,5627 8448,5564 8448,5502 8448,5440 8388,5375 8328,5310 8269,5246 8269,5242 8269,5238 8269,5234 8328,5169 8388,5105 8448,5040 8448,4918 8448,4796 8448,4674 8384,4611 8321,4547 8257,4484 7911,4484 7565,4484 7219,4484 7210,4493 7201,4502 7192,4511 7192,4937 7192,5364 7192,5790 7201,5799 7210,5808 7219,5817 Z M 8063,5101 C 7881,5012 7699,4923 7516,4834 7516,4813 7516,4791 7516,4770 7698,4770 7880,4770 8061,4770 8082,4791 8103,4812 8124,4833 8124,4898 8124,4963 8124,5029 8104,5053 8083,5077 8063,5101 Z M 7516,5531 C 7516,5385 7516,5238 7516,5092 7699,5181 7881,5270 8063,5360 8083,5384 8104,5408 8124,5432 8124,5444 8124,5456 8124,5468 8103,5489 8082,5510 8061,5531 7880,5531 7698,5531 7516,5531 Z"/>
        </g>
       </g>
       <g class="com.sun.star.drawing.ClosedBezierShape">
        <g id="id20">
         <rect class="BoundingBox" stroke="none" fill="none" x="8788" y="4484" width="1257" height="1335"/>
         <path fill="rgb(179,56,28)" stroke="none" d="M 8979,5817 C 9270,5817 9562,5817 9853,5817 9917,5754 9980,5690 10044,5627 10044,5255 10044,4883 10044,4511 10035,4502 10026,4493 10017,4484 9927,4484 9837,4484 9747,4484 9738,4493 9729,4502 9720,4511 9720,4830 9720,5149 9720,5468 9699,5489 9678,5510 9657,5531 9496,5531 9336,5531 9175,5531 9154,5510 9133,5489 9112,5468 9112,5392 9112,5316 9112,5240 9103,5231 9095,5222 9086,5213 8995,5213 8905,5213 8815,5213 8806,5222 8797,5231 8788,5240 8788,5369 8788,5498 8788,5627 8852,5690 8915,5754 8979,5817 Z"/>
        </g>
       </g>
       <g class="com.sun.star.drawing.ClosedBezierShape">
        <g id="id21">
         <rect class="BoundingBox" stroke="none" fill="none" x="10384" y="4484" width="1132" height="1334"/>
         <path fill="rgb(179,56,28)" stroke="none" d="M 10411,5817 C 10769,5817 11127,5817 11486,5817 11495,5808 11505,5799 11514,5790 11503,5713 11491,5635 11480,5558 11470,5549 11461,5540 11451,5531 11204,5531 10956,5531 10708,5531 10708,5453 10708,5374 10708,5295 10902,5295 11096,5295 11289,5295 11299,5286 11308,5277 11318,5268 11329,5191 11339,5113 11350,5036 11341,5027 11333,5018 11324,5009 11119,5009 10913,5009 10708,5009 10708,4929 10708,4850 10708,4770 10955,4770 11202,4770 11449,4770 11460,4761 11470,4752 11480,4743 11491,4666 11503,4588 11514,4511 11505,4502 11495,4493 11486,4484 11127,4484 10769,4484 10411,4484 10402,4493 10393,4502 10384,4511 10384,4937 10384,5364 10384,5790 10393,5799 10402,5808 10411,5817 Z"/>
        </g>
       </g>
       <g class="com.sun.star.drawing.ClosedBezierShape">
        <g id="id22">
         <rect class="BoundingBox" stroke="none" fill="none" x="11857" y="4484" width="1257" height="1335"/>
         <path fill="rgb(179,56,28)" stroke="none" d="M 12048,5817 C 12339,5817 12631,5817 12922,5817 12986,5754 13049,5690 13113,5627 13113,5545 13113,5463 13113,5381 13104,5372 13095,5363 13086,5354 12996,5354 12906,5354 12816,5354 12807,5363 12798,5372 12789,5381 12789,5409 12789,5438 12789,5466 12767,5488 12746,5510 12724,5531 12564,5531 12404,5531 12244,5531 12223,5510 12202,5489 12181,5468 12181,5256 12181,5044 12181,4832 12202,4811 12223,4791 12244,4770 12404,4770 12564,4770 12724,4770 12746,4791 12767,4813 12789,4834 12789,4863 12789,4892 12789,4920 12798,4929 12807,4938 12816,4947 12906,4947 12996,4947 13086,4947 13095,4938 13104,4929 13113,4920 13113,4838 13113,4756 13113,4674 13049,4611 12986,4547 12922,4484 12631,4484 12339,4484 12048,4484 11984,4547 11921,4611 11857,4674 11857,4992 11857,5309 11857,5627 11921,5690 11984,5754 12048,5817 Z"/>
        </g>
       </g>
       <g class="com.sun.star.drawing.ClosedBezierShape">
        <g id="id23">
         <rect class="BoundingBox" stroke="none" fill="none" x="13388" y="4484" width="1196" height="1336"/>
         <path fill="rgb(179,56,28)" stroke="none" d="M 13851,5819 C 13941,5819 14030,5819 14120,5819 14129,5810 14138,5801 14146,5792 14146,5464 14146,5136 14146,4808 14272,4808 14397,4808 14522,4808 14531,4799 14541,4790 14550,4781 14561,4691 14572,4601 14583,4511 14574,4502 14565,4493 14556,4484 14176,4484 13795,4484 13415,4484 13406,4493 13397,4502 13388,4511 13399,4601 13410,4691 13421,4781 13430,4790 13440,4799 13449,4808 13574,4808 13698,4808 13823,4808 13823,5136 13823,5464 13823,5792 13832,5801 13842,5810 13851,5819 Z"/>
        </g>
       </g>
       <g class="com.sun.star.drawing.ClosedBezierShape">
        <g id="id24">
         <rect class="BoundingBox" stroke="none" fill="none" x="14867" y="4484" width="1132" height="1334"/>
         <path fill="rgb(179,56,28)" stroke="none" d="M 14894,5817 C 15198,5817 15502,5817 15807,5817 15870,5754 15934,5690 15997,5627 15997,5529 15997,5432 15997,5335 15766,5183 15535,5032 15304,4880 15304,4864 15304,4848 15304,4832 15325,4811 15347,4791 15368,4770 15558,4770 15747,4770 15936,4770 15946,4761 15955,4752 15965,4743 15976,4666 15986,4588 15997,4511 15988,4502 15979,4493 15970,4484 15666,4484 15362,4484 15058,4484 14994,4547 14931,4611 14867,4674 14867,4778 14867,4881 14867,4985 15085,5127 15303,5269 15521,5411 15521,5430 15521,5449 15521,5468 15499,5489 15478,5510 15456,5531 15280,5531 15104,5531 14928,5531 14919,5540 14909,5549 14900,5558 14889,5635 14878,5713 14867,5790 14876,5799 14885,5808 14894,5817 Z"/>
        </g>
       </g>
      </g>
     </g>
    </g>
   </g>
  </g>
 </g>
</svg>