<?xml version="1.0" encoding="UTF-8"?>
<!DOCTYPE svg PUBLIC "-//W3C//DTD SVG 1.1//EN" "http://www.w3.org/Graphics/SVG/1.1/DTD/svg11.dtd">
<svg version="1.2" width="215.9mm" height="76.2mm" viewBox="0 0 21590 7620" preserveAspectRatio="xMidYMid" fill-rule="evenodd" stroke-width="28.222" stroke-linejoin="round" xmlns="http://www.w3.org/2000/svg" xmlns:ooo="http://xml.openoffice.org/svg/export" xmlns:xlink="http://www.w3.org/1999/xlink" xmlns:presentation="http://sun.com/xmlns/staroffice/presentation" xmlns:smil="http://www.w3.org/2001/SMIL20/" xmlns:anim="urn:oasis:names:tc:opendocument:xmlns:animation:1.0" xmlns:svg="urn:oasis:names:tc:opendocument:xmlns:svg-compatible:1.0" xml:space="preserve">
 <defs class="ClipPathGroup">
  <clipPath id="presentation_clip_path" clipPathUnits="userSpaceOnUse">
   <rect x="0" y="0" width="21590" height="7620"/>
  </clipPath>
  <clipPath id="presentation_clip_path_shrink" clipPathUnits="userSpaceOnUse">
   <rect x="21" y="7" width="21547" height="7605"/>
  </clipPath>
 </defs>
 <defs class="TextShapeIndex">
  <g ooo:slide="id1" ooo:id-list="id3 id4 id5 id6 id7 id8 id9 id10 id11 id12 id13 id14 id15 id16"/>
 </defs>
 <defs class="EmbeddedBulletChars">
  <g id="bullet-char-template-57356" transform="scale(0.00048828125,-0.00048828125)">
   <path d="M 580,1141 L 1163,571 580,0 -4,571 580,1141 Z"/>
  </g>
  <g id="bullet-char-template-57354" transform="scale(0.00048828125,-0.00048828125)">
   <path d="M 8,1128 L 1137,1128 1137,0 8,0 8,1128 Z"/>
  </g>
  <g id="bullet-char-template-10146" transform="scale(0.00048828125,-0.00048828125)">
   <path d="M 174,0 L 602,739 174,1481 1456,739 174,0 Z M 1358,739 L 309,1346 659,739 1358,739 Z"/>
  </g>
  <g id="bullet-char-template-10132" transform="scale(0.00048828125,-0.00048828125)">
   <path d="M 2015,739 L 1276,0 717,0 1260,543 174,543 174,936 1260,936 717,1481 1274,1481 2015,739 Z"/>
  </g>
  <g id="bullet-char-template-10007" transform="scale(0.00048828125,-0.00048828125)">
   <path d="M 0,-2 C -7,14 -16,27 -25,37 L 356,567 C 262,823 215,952 215,954 215,979 228,992 255,992 264,992 276,990 289,987 310,991 331,999 354,1012 L 381,999 492,748 772,1049 836,1024 860,1049 C 881,1039 901,1025 922,1006 886,937 835,863 770,784 769,783 710,716 594,584 L 774,223 C 774,196 753,168 711,139 L 727,119 C 717,90 699,76 672,76 641,76 570,178 457,381 L 164,-76 C 142,-110 111,-127 72,-127 30,-127 9,-110 8,-76 1,-67 -2,-52 -2,-32 -2,-23 -1,-13 0,-2 Z"/>
  </g>
  <g id="bullet-char-template-10004" transform="scale(0.00048828125,-0.00048828125)">
   <path d="M 285,-33 C 182,-33 111,30 74,156 52,228 41,333 41,471 41,549 55,616 82,672 116,743 169,778 240,778 293,778 328,747 346,684 L 369,508 C 377,444 397,411 428,410 L 1163,1116 C 1174,1127 1196,1133 1229,1133 1271,1133 1292,1118 1292,1087 L 1292,965 C 1292,929 1282,901 1262,881 L 442,47 C 390,-6 338,-33 285,-33 Z"/>
  </g>
  <g id="bullet-char-template-9679" transform="scale(0.00048828125,-0.00048828125)">
   <path d="M 813,0 C 632,0 489,54 383,161 276,268 223,411 223,592 223,773 276,916 383,1023 489,1130 632,1184 813,1184 992,1184 1136,1130 1245,1023 1353,916 1407,772 1407,592 1407,412 1353,268 1245,161 1136,54 992,0 813,0 Z"/>
  </g>
  <g id="bullet-char-template-8226" transform="scale(0.00048828125,-0.00048828125)">
   <path d="M 346,457 C 273,457 209,483 155,535 101,586 74,649 74,723 74,796 101,859 155,911 209,963 273,989 346,989 419,989 480,963 531,910 582,859 608,796 608,723 608,648 583,586 532,535 482,483 420,457 346,457 Z"/>
  </g>
  <g id="bullet-char-template-8211" transform="scale(0.00048828125,-0.00048828125)">
   <path d="M -4,459 L 1135,459 1135,606 -4,606 -4,459 Z"/>
  </g>
  <g id="bullet-char-template-61548" transform="scale(0.00048828125,-0.00048828125)">
   <path d="M 173,740 C 173,903 231,1043 346,1159 462,1274 601,1332 765,1332 928,1332 1067,1274 1183,1159 1299,1043 1357,903 1357,740 1357,577 1299,437 1183,322 1067,206 928,148 765,148 601,148 462,206 346,322 231,437 173,577 173,740 Z"/>
  </g>
 </defs>
 <g>
  <g id="id2" class="Master_Slide">
   <g id="bg-id2" class="Background"/>
   <g id="bo-id2" class="BackgroundObjects"/>
  </g>
 </g>
 <g class="SlideGroup">
  <g>
   <g id="container-id1">
    <g id="id1" class="Slide" clip-path="url(#presentation_clip_path)">
     <g class="Page">
      <g class="Group">
       <g class="com.sun.star.drawing.ClosedBezierShape">
        <g id="id3">
         <rect class="BoundingBox" stroke="none" fill="none" x="1322" y="1866" width="2133" height="2261"/>
         <path fill="rgb(83,31,20)" stroke="none" d="M 3454,2201 C 3343,2089 3231,1978 3119,1866 2632,1866 2145,1866 1657,1866 1545,1978 1434,2089 1322,2201 1322,2731 1322,3261 1322,3790 1434,3902 1545,4014 1657,4126 2145,4126 2632,4126 3119,4126 3231,4014 3343,3902 3454,3790 3454,3645 3454,3499 3454,3353 3432,3330 3409,3307 3386,3285 3227,3285 3067,3285 2908,3285 2885,3307 2863,3330 2840,3353 2840,3399 2840,3446 2840,3492 2813,3519 2786,3546 2759,3573 2511,3573 2263,3573 2014,3573 1988,3547 1962,3521 1937,3496 1937,3162 1937,2829 1937,2496 1962,2470 1988,2444 2014,2419 2263,2419 2511,2419 2759,2419 2786,2445 2813,2472 2840,2499 2840,2546 2840,2592 2840,2639 2863,2662 2885,2684 2908,2707 3067,2707 3227,2707 3386,2707 3409,2684 3432,2662 3454,2639 3454,2493 3454,2347 3454,2201 Z M 1694,1953 C 2157,1953 2619,1953 3082,1953 3177,2048 3272,2143 3368,2238 3368,2360 3368,2481 3368,2602 3361,2608 3355,2614 3349,2620 3214,2620 3080,2620 2945,2620 2939,2614 2933,2608 2927,2602 2927,2555 2927,2509 2927,2462 2883,2419 2840,2375 2796,2332 2523,2332 2250,2332 1977,2332 1935,2374 1892,2416 1850,2459 1850,2817 1850,3175 1850,3533 1892,3575 1935,3618 1977,3660 2250,3660 2523,3660 2796,3660 2840,3617 2883,3573 2927,3530 2927,3483 2927,3437 2927,3390 2933,3384 2939,3378 2945,3371 3080,3371 3214,3371 3349,3371 3355,3378 3361,3384 3368,3390 3368,3511 3368,3632 3368,3753 3272,3848 3177,3944 3082,4039 2619,4039 2157,4039 1694,4039 1599,3944 1504,3848 1409,3753 1409,3248 1409,2743 1409,2238 1504,2143 1599,2048 1694,1953 Z"/>
        </g>
       </g>
       <g class="com.sun.star.drawing.ClosedBezierShape">
        <g id="id4">
         <rect class="BoundingBox" stroke="none" fill="none" x="3909" y="1866" width="2133" height="2261"/>
         <path fill="rgb(83,31,20)" stroke="none" d="M 6041,2201 C 5930,2089 5818,1978 5706,1866 5219,1866 4732,1866 4244,1866 4132,1978 4021,2089 3909,2201 3909,2820 3909,3439 3909,4057 3932,4080 3955,4103 3977,4126 4137,4126 4296,4126 4455,4126 4478,4103 4501,4080 4524,4057 4524,3799 4524,3540 4524,3281 4825,3497 5126,3712 5427,3927 5427,3971 5427,4014 5427,4057 5450,4080 5472,4103 5495,4126 5654,4126 5814,4126 5973,4126 5996,4103 6019,4080 6041,4057 6041,3439 6041,2820 6041,2201 Z M 4281,1953 C 4744,1953 5206,1953 5669,1953 5764,2048 5859,2143 5955,2238 5955,2832 5955,3426 5955,4020 5948,4026 5942,4033 5936,4039 5801,4039 5667,4039 5532,4039 5526,4033 5520,4026 5514,4020 5514,3975 5514,3929 5514,3884 5155,3627 4796,3370 4437,3114 4437,3416 4437,3718 4437,4020 4430,4026 4424,4033 4418,4039 4284,4039 4149,4039 4015,4039 4008,4033 4002,4026 3996,4020 3996,3426 3996,2832 3996,2238 4091,2143 4186,2048 4281,1953 Z M 4437,2658 C 4796,2914 5155,3171 5514,3427 5514,3104 5514,2782 5514,2459 5471,2416 5429,2374 5387,2332 5113,2332 4840,2332 4567,2332 4524,2374 4480,2416 4437,2459 4437,2525 4437,2591 4437,2658 Z M 5427,2496 C 5427,2751 5427,3005 5427,3260 5126,3044 4825,2829 4524,2614 4524,2575 4524,2535 4524,2496 4550,2470 4577,2444 4604,2419 4853,2419 5101,2419 5349,2419 5375,2444 5401,2470 5427,2496 Z"/>
        </g>
       </g>
       <g class="com.sun.star.drawing.ClosedBezierShape">
        <g id="id5">
         <rect class="BoundingBox" stroke="none" fill="none" x="6505" y="1866" width="1936" height="2261"/>
         <path fill="rgb(83,31,20)" stroke="none" d="M 6505,4054 C 6529,4078 6553,4102 6576,4126 7084,4126 7592,4126 8100,4126 8212,4014 8324,3902 8436,3790 8436,3618 8436,3445 8436,3272 8059,3025 7682,2778 7306,2530 7306,2519 7306,2507 7306,2496 7333,2470 7360,2444 7387,2419 7695,2419 8003,2419 8312,2419 8334,2397 8357,2375 8380,2353 8399,2215 8419,2076 8439,1937 8415,1914 8391,1890 8367,1866 7859,1866 7351,1866 6843,1866 6732,1978 6620,2089 6508,2201 6508,2384 6508,2568 6508,2751 6863,2982 7218,3214 7573,3446 7573,3462 7573,3479 7573,3496 7546,3521 7519,3547 7492,3573 7205,3573 6919,3573 6632,3573 6610,3595 6587,3617 6564,3638 6544,3777 6525,3916 6505,4054 Z M 8063,4039 C 7580,4039 7097,4039 6614,4039 6608,4034 6603,4028 6598,4023 6614,3909 6629,3796 6645,3682 6653,3675 6661,3667 6670,3660 6956,3660 7243,3660 7529,3660 7573,3618 7616,3575 7660,3533 7660,3487 7660,3442 7660,3396 7305,3165 6950,2933 6595,2701 6595,2547 6595,2393 6595,2238 6690,2143 6785,2048 6881,1953 7364,1953 7847,1953 8330,1953 8335,1958 8341,1963 8346,1968 8330,2082 8315,2196 8299,2310 8291,2317 8283,2324 8274,2332 7966,2332 7658,2332 7349,2332 7306,2374 7262,2416 7219,2459 7219,2499 7219,2540 7219,2580 7596,2827 7972,3074 8349,3322 8349,3466 8349,3609 8349,3753 8254,3848 8158,3944 8063,4039 Z"/>
        </g>
       </g>
       <g class="com.sun.star.drawing.ClosedBezierShape">
        <g id="id6">
         <rect class="BoundingBox" stroke="none" fill="none" x="8906" y="1866" width="1936" height="2261"/>
         <path fill="rgb(83,31,20)" stroke="none" d="M 8906,4054 C 8930,4078 8954,4102 8977,4126 9485,4126 9993,4126 10501,4126 10613,4014 10725,3902 10837,3790 10837,3618 10837,3445 10837,3272 10460,3025 10083,2778 9707,2530 9707,2519 9707,2507 9707,2496 9734,2470 9761,2444 9788,2419 10096,2419 10404,2419 10713,2419 10735,2397 10758,2375 10781,2353 10800,2215 10820,2076 10840,1937 10816,1914 10792,1890 10768,1866 10260,1866 9752,1866 9244,1866 9133,1978 9021,2089 8909,2201 8909,2384 8909,2568 8909,2751 9264,2982 9619,3214 9974,3446 9974,3462 9974,3479 9974,3496 9947,3521 9920,3547 9893,3573 9606,3573 9320,3573 9033,3573 9011,3595 8988,3617 8965,3638 8945,3777 8926,3916 8906,4054 Z M 10464,4039 C 9981,4039 9498,4039 9015,4039 9009,4034 9004,4028 8999,4023 9015,3909 9030,3796 9046,3682 9054,3675 9062,3667 9071,3660 9357,3660 9644,3660 9930,3660 9974,3618 10017,3575 10061,3533 10061,3487 10061,3442 10061,3396 9706,3165 9351,2933 8996,2701 8996,2547 8996,2393 8996,2238 9091,2143 9186,2048 9282,1953 9765,1953 10248,1953 10731,1953 10736,1958 10742,1963 10747,1968 10731,2082 10716,2196 10700,2310 10692,2317 10684,2324 10675,2332 10367,2332 10059,2332 9750,2332 9707,2374 9663,2416 9620,2459 9620,2499 9620,2540 9620,2580 9997,2827 10373,3074 10750,3322 10750,3466 10750,3609 10750,3753 10655,3848 10559,3944 10464,4039 Z"/>
        </g>
       </g>
       <g class="com.sun.star.drawing.ClosedBezierShape">
        <g id="id7">
         <rect class="BoundingBox" stroke="none" fill="none" x="11309" y="1866" width="1932" height="2261"/>
         <path fill="rgb(83,31,20)" stroke="none" d="M 11309,4057 C 11332,4080 11355,4103 11377,4126 11973,4126 12569,4126 13165,4126 13190,4102 13215,4078 13240,4054 13219,3916 13198,3777 13178,3638 13155,3617 13132,3595 13109,3573 12714,3573 12319,3573 11924,3573 11924,3474 11924,3375 11924,3275 12231,3275 12538,3275 12845,3275 12868,3253 12891,3232 12914,3210 12933,3071 12953,2933 12973,2794 12949,2770 12925,2747 12901,2723 12575,2723 12250,2723 11924,2723 11924,2621 11924,2520 11924,2419 12317,2419 12710,2419 13103,2419 13128,2397 13153,2375 13178,2353 13198,2215 13219,2076 13240,1937 13215,1914 13190,1890 13165,1866 12569,1866 11973,1866 11377,1866 11355,1889 11332,1912 11309,1934 11309,2642 11309,3350 11309,4057 Z M 13128,4039 C 12557,4039 11986,4039 11415,4039 11408,4033 11402,4026 11396,4020 11396,3337 11396,2654 11396,1972 11402,1965 11408,1959 11415,1953 11986,1953 12557,1953 13128,1953 13134,1958 13140,1963 13147,1968 13130,2082 13113,2196 13097,2310 13089,2317 13080,2324 13072,2332 12660,2332 12248,2332 11837,2332 11837,2491 11837,2650 11837,2810 12179,2810 12522,2810 12864,2810 12869,2815 12874,2820 12880,2825 12864,2939 12849,3053 12833,3167 12825,3174 12817,3181 12808,3188 12484,3188 12161,3188 11837,3188 11837,3346 11837,3503 11837,3660 12248,3660 12660,3660 13072,3660 13080,3667 13089,3675 13097,3682 13113,3796 13130,3909 13147,4023 13140,4028 13134,4034 13128,4039 Z"/>
        </g>
       </g>
       <g class="com.sun.star.drawing.ClosedBezierShape">
        <g id="id8">
         <rect class="BoundingBox" stroke="none" fill="none" x="13609" y="1865" width="2040" height="2265"/>
         <path fill="rgb(83,31,20)" stroke="none" d="M 13609,1937 C 13629,2097 13648,2256 13668,2415 13691,2437 13713,2459 13736,2481 13931,2481 14125,2481 14320,2481 14320,3007 14320,3534 14320,4061 14344,4083 14367,4106 14391,4129 14550,4129 14708,4129 14866,4129 14889,4106 14912,4083 14934,4061 14934,3534 14934,3007 14934,2481 15130,2481 15326,2481 15521,2481 15544,2459 15567,2437 15589,2415 15609,2256 15629,2097 15648,1937 15625,1914 15601,1890 15577,1866 14945,1866 14313,1866 13680,1866 13657,1890 13633,1914 13609,1937 Z M 13774,2394 C 13765,2386 13757,2379 13749,2372 13733,2237 13718,2103 13702,1968 13707,1963 13712,1958 13718,1953 14325,1953 14932,1953 15540,1953 15545,1958 15550,1963 15555,1968 15540,2103 15524,2237 15509,2372 15500,2379 15492,2386 15484,2394 15272,2394 15060,2394 14847,2394 14847,2937 14847,3480 14847,4023 14841,4029 14835,4036 14829,4042 14695,4042 14562,4042 14428,4042 14421,4036 14414,4029 14407,4023 14407,3480 14407,2937 14407,2394 14196,2394 13985,2394 13774,2394 Z"/>
        </g>
       </g>
       <g class="com.sun.star.drawing.ClosedBezierShape">
        <g id="id9">
         <rect class="BoundingBox" stroke="none" fill="none" x="15929" y="1865" width="2040" height="2265"/>
         <path fill="rgb(83,31,20)" stroke="none" d="M 15929,1937 C 15949,2097 15968,2256 15988,2415 16011,2437 16033,2459 16056,2481 16251,2481 16445,2481 16640,2481 16640,3007 16640,3534 16640,4061 16664,4083 16687,4106 16711,4129 16870,4129 17028,4129 17186,4129 17209,4106 17232,4083 17254,4061 17254,3534 17254,3007 17254,2481 17450,2481 17646,2481 17841,2481 17864,2459 17887,2437 17909,2415 17929,2256 17949,2097 17968,1937 17945,1914 17921,1890 17897,1866 17265,1866 16633,1866 16000,1866 15977,1890 15953,1914 15929,1937 Z M 16094,2394 C 16085,2386 16077,2379 16069,2372 16053,2237 16038,2103 16022,1968 16027,1963 16032,1958 16038,1953 16645,1953 17252,1953 17860,1953 17865,1958 17870,1963 17875,1968 17860,2103 17844,2237 17829,2372 17820,2379 17812,2386 17804,2394 17592,2394 17380,2394 17167,2394 17167,2937 17167,3480 17167,4023 17161,4029 17155,4036 17149,4042 17015,4042 16882,4042 16748,4042 16741,4036 16734,4029 16727,4023 16727,3480 16727,2937 16727,2394 16516,2394 16305,2394 16094,2394 Z"/>
        </g>
       </g>
       <g class="com.sun.star.drawing.ClosedBezierShape">
        <g id="id10">
         <rect class="BoundingBox" stroke="none" fill="none" x="18341" y="1866" width="1932" height="2261"/>
         <path fill="rgb(83,31,20)" stroke="none" d="M 18341,4057 C 18364,4080 18387,4103 18409,4126 19005,4126 19601,4126 20197,4126 20222,4102 20247,4078 20272,4054 20251,3916 20230,3777 20210,3638 20187,3617 20164,3595 20141,3573 19746,3573 19351,3573 18956,3573 18956,3474 18956,3375 18956,3275 19263,3275 19570,3275 19877,3275 19900,3253 19923,3232 19946,3210 19965,3071 19985,2933 20005,2794 19981,2770 19957,2747 19933,2723 19607,2723 19282,2723 18956,2723 18956,2621 18956,2520 18956,2419 19349,2419 19742,2419 20135,2419 20160,2397 20185,2375 20210,2353 20230,2215 20251,2076 20272,1937 20247,1914 20222,1890 20197,1866 19601,1866 19005,1866 18409,1866 18387,1889 18364,1912 18341,1934 18341,2642 18341,3350 18341,4057 Z M 20160,4039 C 19589,4039 19018,4039 18447,4039 18440,4033 18434,4026 18428,4020 18428,3337 18428,2654 18428,1972 18434,1965 18440,1959 18447,1953 19018,1953 19589,1953 20160,1953 20166,1958 20172,1963 20179,1968 20162,2082 20145,2196 20129,2310 20121,2317 20112,2324 20104,2332 19692,2332 19280,2332 18869,2332 18869,2491 18869,2650 18869,2810 19211,2810 19554,2810 19896,2810 19901,2815 19906,2820 19912,2825 19896,2939 19881,3053 19865,3167 19857,3174 19849,3181 19840,3188 19516,3188 19193,3188 18869,3188 18869,3346 18869,3503 18869,3660 19280,3660 19692,3660 20104,3660 20112,3667 20121,3675 20129,3682 20145,3796 20162,3909 20179,4023 20172,4028 20166,4034 20160,4039 Z"/>
        </g>
       </g>
      </g>
      <g class="Group">
       <g class="com.sun.star.drawing.ClosedBezierShape">
        <g id="id11">
         <rect class="BoundingBox" stroke="none" fill="none" x="8676" y="4590" width="1257" height="1334"/>
         <path fill="rgb(72,27,17)" stroke="none" d="M 8703,5923 C 8793,5923 8883,5923 8974,5923 8983,5914 8991,5905 9000,5896 9000,5724 9000,5552 9000,5380 9203,5525 9405,5670 9608,5814 9608,5842 9608,5869 9608,5896 9617,5905 9626,5914 9635,5923 9725,5923 9815,5923 9905,5923 9914,5914 9923,5905 9932,5896 9932,5524 9932,5152 9932,4780 9868,4717 9805,4653 9741,4590 9450,4590 9158,4590 8867,4590 8803,4653 8740,4717 8676,4780 8676,5152 8676,5524 8676,5896 8685,5905 8694,5914 8703,5923 Z M 9608,5470 C 9405,5325 9203,5180 9000,5035 9000,5003 9000,4971 9000,4938 9022,4917 9043,4897 9065,4876 9225,4876 9385,4876 9545,4876 9566,4897 9587,4918 9608,4939 9608,5116 9608,5293 9608,5470 Z"/>
        </g>
       </g>
       <g class="com.sun.star.drawing.ClosedBezierShape">
        <g id="id12">
         <rect class="BoundingBox" stroke="none" fill="none" x="10272" y="4590" width="1257" height="1334"/>
         <path fill="rgb(72,27,17)" stroke="none" d="M 10299,5923 C 10645,5923 10991,5923 11337,5923 11401,5860 11464,5796 11528,5733 11528,5415 11528,5098 11528,4780 11464,4717 11401,4653 11337,4590 10991,4590 10645,4590 10299,4590 10290,4599 10281,4608 10272,4617 10272,5043 10272,5470 10272,5896 10281,5905 10290,5914 10299,5923 Z M 10596,5637 C 10596,5383 10596,5130 10596,4876 10778,4876 10960,4876 11141,4876 11162,4897 11183,4918 11204,4939 11204,5151 11204,5362 11204,5574 11183,5595 11162,5616 11141,5637 10960,5637 10778,5637 10596,5637 Z"/>
        </g>
       </g>
       <g class="com.sun.star.drawing.ClosedBezierShape">
        <g id="id13">
         <rect class="BoundingBox" stroke="none" fill="none" x="11872" y="4590" width="1257" height="1334"/>
         <path fill="rgb(72,27,17)" stroke="none" d="M 11899,5923 C 11989,5923 12079,5923 12170,5923 12179,5914 12187,5905 12196,5896 12196,5724 12196,5552 12196,5380 12399,5525 12601,5670 12804,5814 12804,5842 12804,5869 12804,5896 12813,5905 12822,5914 12831,5923 12921,5923 13011,5923 13101,5923 13110,5914 13119,5905 13128,5896 13128,5524 13128,5152 13128,4780 13064,4717 13001,4653 12937,4590 12646,4590 12354,4590 12063,4590 11999,4653 11936,4717 11872,4780 11872,5152 11872,5524 11872,5896 11881,5905 11890,5914 11899,5923 Z M 12804,5470 C 12601,5325 12399,5180 12196,5035 12196,5003 12196,4971 12196,4938 12218,4917 12239,4897 12261,4876 12421,4876 12581,4876 12741,4876 12762,4897 12783,4918 12804,4939 12804,5116 12804,5293 12804,5470 Z"/>
        </g>
       </g>
       <g class="com.sun.star.drawing.ClosedBezierShape">
        <g id="id14">
         <rect class="BoundingBox" stroke="none" fill="none" x="8570" y="4484" width="1257" height="1335"/>
         <path fill="rgb(179,56,28)" stroke="none" d="M 8597,5817 C 8687,5817 8777,5817 8868,5817 8877,5808 8885,5799 8894,5790 8894,5618 8894,5446 8894,5274 9097,5419 9299,5564 9502,5708 9502,5736 9502,5763 9502,5790 9511,5799 9520,5808 9529,5817 9619,5817 9709,5817 9799,5817 9808,5808 9817,5799 9826,5790 9826,5418 9826,5046 9826,4674 9762,4611 9699,4547 9635,4484 9344,4484 9052,4484 8761,4484 8697,4547 8634,4611 8570,4674 8570,5046 8570,5418 8570,5790 8579,5799 8588,5808 8597,5817 Z M 9502,5364 C 9299,5219 9097,5074 8894,4929 8894,4897 8894,4865 8894,4832 8916,4811 8937,4791 8959,4770 9119,4770 9279,4770 9439,4770 9460,4791 9481,4812 9502,4833 9502,5010 9502,5187 9502,5364 Z"/>
        </g>
       </g>
       <g class="com.sun.star.drawing.ClosedBezierShape">
        <g id="id15">
         <rect class="BoundingBox" stroke="none" fill="none" x="10166" y="4484" width="1257" height="1335"/>
         <path fill="rgb(179,56,28)" stroke="none" d="M 10193,5817 C 10539,5817 10885,5817 11231,5817 11295,5754 11358,5690 11422,5627 11422,5309 11422,4992 11422,4674 11358,4611 11295,4547 11231,4484 10885,4484 10539,4484 10193,4484 10184,4493 10175,4502 10166,4511 10166,4937 10166,5364 10166,5790 10175,5799 10184,5808 10193,5817 Z M 10490,5531 C 10490,5277 10490,5024 10490,4770 10672,4770 10854,4770 11035,4770 11056,4791 11077,4812 11098,4833 11098,5045 11098,5256 11098,5468 11077,5489 11056,5510 11035,5531 10854,5531 10672,5531 10490,5531 Z"/>
        </g>
       </g>
       <g class="com.sun.star.drawing.ClosedBezierShape">
        <g id="id16">
         <rect class="BoundingBox" stroke="none" fill="none" x="11766" y="4484" width="1257" height="1335"/>
         <path fill="rgb(179,56,28)" stroke="none" d="M 11793,5817 C 11883,5817 11973,5817 12064,5817 12073,5808 12081,5799 12090,5790 12090,5618 12090,5446 12090,5274 12293,5419 12495,5564 12698,5708 12698,5736 12698,5763 12698,5790 12707,5799 12716,5808 12725,5817 12815,5817 12905,5817 12995,5817 13004,5808 13013,5799 13022,5790 13022,5418 13022,5046 13022,4674 12958,4611 12895,4547 12831,4484 12540,4484 12248,4484 11957,4484 11893,4547 11830,4611 11766,4674 11766,5046 11766,5418 11766,5790 11775,5799 11784,5808 11793,5817 Z M 12698,5364 C 12495,5219 12293,5074 12090,4929 12090,4897 12090,4865 12090,4832 12112,4811 12133,4791 12155,4770 12315,4770 12475,4770 12635,4770 12656,4791 12677,4812 12698,4833 12698,5010 12698,5187 12698,5364 Z"/>
        </g>
       </g>
      </g>
     </g>
    </g>
   </g>
  </g>
 </g>
</svg>