<?xml version="1.0" encoding="UTF-8"?>
<!DOCTYPE svg PUBLIC "-//W3C//DTD SVG 1.1//EN" "http://www.w3.org/Graphics/SVG/1.1/DTD/svg11.dtd">
<svg version="1.2" width="215.9mm" height="76.2mm" viewBox="0 0 21590 7620" preserveAspectRatio="xMidYMid" fill-rule="evenodd" stroke-width="28.222" stroke-linejoin="round" xmlns="http://www.w3.org/2000/svg" xmlns:ooo="http://xml.openoffice.org/svg/export" xmlns:xlink="http://www.w3.org/1999/xlink" xmlns:presentation="http://sun.com/xmlns/staroffice/presentation" xmlns:smil="http://www.w3.org/2001/SMIL20/" xmlns:anim="urn:oasis:names:tc:opendocument:xmlns:animation:1.0" xmlns:svg="urn:oasis:names:tc:opendocument:xmlns:svg-compatible:1.0" xml:space="preserve">
 <defs class="ClipPathGroup">
  <clipPath id="presentation_clip_path" clipPathUnits="userSpaceOnUse">
   <rect x="0" y="0" width="21590" height="7620"/>
  </clipPath>
  <clipPath id="presentation_clip_path_shrink" clipPathUnits="userSpaceOnUse">
   <rect x="21" y="7" width="21547" height="7605"/>
  </clipPath>
 </defs>
 <defs class="TextShapeIndex">
  <g ooo:slide="id1" ooo:id-list="id3 id4 id5 id6 id7 id8 id9 id10 id11 id12 id13 id14 id15 id16 id17 id18 id19 id20 id21 id22 id23 id24 id25 id26"/>
 </defs>
 <defs class="EmbeddedBulletChars">
  <g id="bullet-char-template-57356" transform="scale(0.00048828125,-0.00048828125)">
   <path d="M 580,1141 L 1163,571 580,0 -4,571 580,1141 Z"/>
  </g>
  <g id="bullet-char-template-57354" transform="scale(0.00048828125,-0.00048828125)">
   <path d="M 8,1128 L 1137,1128 1137,0 8,0 8,1128 Z"/>
  </g>
  <g id="bullet-char-template-10146" transform="scale(0.00048828125,-0.00048828125)">
   <path d="M 174,0 L 602,739 174,1481 1456,739 174,0 Z M 1358,739 L 309,1346 659,739 1358,739 Z"/>
  </g>
  <g id="bullet-char-template-10132" transform="scale(0.00048828125,-0.00048828125)">
   <path d="M 2015,739 L 1276,0 717,0 1260,543 174,543 174,936 1260,936 717,1481 1274,1481 2015,739 Z"/>
  </g>
  <g id="bullet-char-template-10007" transform="scale(0.00048828125,-0.00048828125)">
   <path d="M 0,-2 C -7,14 -16,27 -25,37 L 356,567 C 262,823 215,952 215,954 215,979 228,992 255,992 264,992 276,990 289,987 310,991 331,999 354,1012 L 381,999 492,748 772,1049 836,1024 860,1049 C 881,1039 901,1025 922,1006 886,937 835,863 770,784 769,783 710,716 594,584 L 774,223 C 774,196 753,168 711,139 L 727,119 C 717,90 699,76 672,76 641,76 570,178 457,381 L 164,-76 C 142,-110 111,-127 72,-127 30,-127 9,-110 8,-76 1,-67 -2,-52 -2,-32 -2,-23 -1,-13 0,-2 Z"/>
  </g>
  <g id="bullet-char-template-10004" transform="scale(0.00048828125,-0.00048828125)">
   <path d="M 285,-33 C 182,-33 111,30 74,156 52,228 41,333 41,471 41,549 55,616 82,672 116,743 169,778 240,778 293,778 328,747 346,684 L 369,508 C 377,444 397,411 428,410 L 1163,1116 C 1174,1127 1196,1133 1229,1133 1271,1133 1292,1118 1292,1087 L 1292,965 C 1292,929 1282,901 1262,881 L 442,47 C 390,-6 338,-33 285,-33 Z"/>
  </g>
  <g id="bullet-char-template-9679" transform="scale(0.00048828125,-0.00048828125)">
   <path d="M 813,0 C 632,0 489,54 383,161 276,268 223,411 223,592 223,773 276,916 383,1023 489,1130 632,1184 813,1184 992,1184 1136,1130 1245,1023 1353,916 1407,772 1407,592 1407,412 1353,268 1245,161 1136,54 992,0 813,0 Z"/>
  </g>
  <g id="bullet-char-template-8226" transform="scale(0.00048828125,-0.00048828125)">
   <path d="M 346,457 C 273,457 209,483 155,535 101,586 74,649 74,723 74,796 101,859 155,911 209,963 273,989 346,989 419,989 480,963 531,910 582,859 608,796 608,723 608,648 583,586 532,535 482,483 420,457 346,457 Z"/>
  </g>
  <g id="bullet-char-template-8211" transform="scale(0.00048828125,-0.00048828125)">
   <path d="M -4,459 L 1135,459 1135,606 -4,606 -4,459 Z"/>
  </g>
  <g id="bullet-char-template-61548" transform="scale(0.00048828125,-0.00048828125)">
   <path d="M 173,740 C 173,903 231,1043 346,1159 462,1274 601,1332 765,1332 928,1332 1067,1274 1183,1159 1299,1043 1357,903 1357,740 1357,577 1299,437 1183,322 1067,206 928,148 765,148 601,148 462,206 346,322 231,437 173,577 173,740 Z"/>
  </g>
 </defs>
 <g>
  <g id="id2" class="Master_Slide">
   <g id="bg-id2" class="Background"/>
   <g id="bo-id2" class="BackgroundObjects"/>
  </g>
 </g>
 <g class="SlideGroup">
  <g>
   <g id="container-id1">
    <g id="id1" class="Slide" clip-path="url(#presentation_clip_path)">
     <g class="Page">
      <g class="Group">
       <g class="com.sun.star.drawing.ClosedBezierShape">
        <g id="id3">
         <rect class="BoundingBox" stroke="none" fill="none" x="1321" y="1866" width="2135" height="2261"/>
         <path fill="rgb(83,31,20)" stroke="none" d="M 3454,2201 C 3343,2090 3231,1978 3119,1866 2632,1866 2144,1866 1657,1866 1545,1978 1434,2090 1322,2201 1322,2731 1322,3261 1322,3791 1434,3902 1545,4014 1657,4126 2144,4126 2632,4126 3119,4126 3231,4014 3343,3902 3454,3791 3454,3645 3454,3499 3454,3353 3432,3330 3409,3308 3386,3285 3227,3285 3067,3285 2908,3285 2885,3308 2863,3330 2840,3353 2840,3400 2840,3446 2840,3493 2813,3520 2786,3547 2759,3573 2511,3573 2262,3573 2014,3573 1988,3548 1962,3522 1937,3496 1937,3163 1937,2830 1937,2496 1962,2470 1988,2445 2014,2419 2262,2419 2511,2419 2759,2419 2786,2446 2813,2473 2840,2499 2840,2546 2840,2593 2840,2639 2863,2662 2885,2685 2908,2707 3067,2707 3227,2707 3386,2707 3409,2685 3432,2662 3454,2639 3454,2493 3454,2347 3454,2201 Z M 1694,1953 C 2157,1953 2619,1953 3082,1953 3177,2048 3272,2144 3367,2239 3367,2360 3367,2481 3367,2602 3361,2608 3355,2614 3349,2621 3214,2621 3080,2621 2945,2621 2939,2614 2933,2608 2927,2602 2927,2555 2927,2509 2927,2462 2883,2419 2840,2375 2796,2332 2523,2332 2250,2332 1977,2332 1934,2374 1892,2417 1850,2459 1850,2817 1850,3175 1850,3533 1892,3576 1934,3618 1977,3660 2250,3660 2523,3660 2796,3660 2840,3617 2883,3573 2927,3530 2927,3483 2927,3437 2927,3390 2933,3384 2939,3378 2945,3372 3080,3372 3214,3372 3349,3372 3355,3378 3361,3384 3367,3390 3367,3511 3367,3632 3367,3753 3272,3849 3177,3944 3082,4039 2619,4039 2157,4039 1694,4039 1599,3944 1504,3849 1409,3753 1409,3249 1409,2744 1409,2239 1504,2144 1599,2048 1694,1953 Z"/>
        </g>
       </g>
       <g class="com.sun.star.drawing.ClosedBezierShape">
        <g id="id4">
         <rect class="BoundingBox" stroke="none" fill="none" x="3908" y="1866" width="2135" height="2261"/>
         <path fill="rgb(83,31,20)" stroke="none" d="M 6041,2201 C 5930,2090 5818,1978 5706,1866 5219,1866 4731,1866 4244,1866 4132,1978 4021,2090 3909,2201 3909,2820 3909,3439 3909,4058 3932,4080 3954,4103 3977,4126 4137,4126 4296,4126 4455,4126 4478,4103 4501,4080 4524,4058 4524,3799 4524,3540 4524,3282 4825,3497 5126,3712 5427,3927 5427,3971 5427,4014 5427,4058 5450,4080 5472,4103 5495,4126 5654,4126 5814,4126 5973,4126 5996,4103 6019,4080 6041,4058 6041,3439 6041,2820 6041,2201 Z M 4281,1953 C 4744,1953 5206,1953 5669,1953 5764,2048 5859,2144 5954,2239 5954,2833 5954,3427 5954,4020 5948,4027 5942,4033 5936,4039 5801,4039 5667,4039 5532,4039 5526,4033 5520,4027 5514,4020 5514,3975 5514,3929 5514,3884 5155,3627 4796,3371 4437,3114 4437,3416 4437,3718 4437,4020 4430,4027 4424,4033 4418,4039 4283,4039 4149,4039 4014,4039 4008,4033 4002,4027 3996,4020 3996,3427 3996,2833 3996,2239 4091,2144 4186,2048 4281,1953 Z M 4437,2658 C 4796,2914 5155,3171 5514,3428 5514,3105 5514,2782 5514,2459 5471,2417 5429,2374 5386,2332 5113,2332 4840,2332 4567,2332 4523,2374 4480,2417 4437,2459 4437,2525 4437,2592 4437,2658 Z M 5427,2496 C 5427,2751 5427,3005 5427,3260 5126,3045 4825,2830 4524,2614 4524,2575 4524,2536 4524,2496 4550,2470 4577,2445 4604,2419 4853,2419 5101,2419 5349,2419 5375,2445 5401,2470 5427,2496 Z"/>
        </g>
       </g>
       <g class="com.sun.star.drawing.ClosedBezierShape">
        <g id="id5">
         <rect class="BoundingBox" stroke="none" fill="none" x="6504" y="1866" width="1936" height="2261"/>
         <path fill="rgb(83,31,20)" stroke="none" d="M 6505,4055 C 6529,4078 6552,4102 6576,4126 7084,4126 7592,4126 8100,4126 8212,4014 8324,3902 8435,3791 8435,3618 8435,3445 8435,3272 8059,3025 7682,2778 7306,2531 7306,2519 7306,2508 7306,2496 7333,2470 7359,2445 7386,2419 7695,2419 8003,2419 8311,2419 8334,2397 8357,2375 8380,2354 8399,2215 8419,2076 8439,1938 8415,1914 8391,1890 8367,1866 7859,1866 7351,1866 6843,1866 6731,1978 6620,2090 6508,2201 6508,2385 6508,2568 6508,2751 6863,2983 7218,3214 7573,3446 7573,3463 7573,3479 7573,3496 7546,3522 7519,3548 7492,3573 7205,3573 6919,3573 6632,3573 6609,3595 6587,3617 6564,3639 6544,3777 6524,3916 6505,4055 Z M 8063,4039 C 7580,4039 7097,4039 6613,4039 6608,4034 6603,4029 6598,4024 6613,3910 6629,3796 6644,3682 6653,3675 6661,3668 6669,3660 6956,3660 7243,3660 7529,3660 7573,3618 7616,3576 7659,3533 7659,3488 7659,3442 7659,3397 7305,3165 6950,2933 6595,2701 6595,2547 6595,2393 6595,2239 6690,2144 6785,2048 6880,1953 7364,1953 7847,1953 8330,1953 8335,1958 8340,1964 8345,1969 8330,2082 8314,2196 8299,2310 8291,2317 8282,2325 8274,2332 7966,2332 7657,2332 7349,2332 7306,2374 7262,2417 7219,2459 7219,2499 7219,2540 7219,2580 7595,2827 7972,3075 8349,3322 8349,3466 8349,3610 8349,3753 8253,3849 8158,3944 8063,4039 Z"/>
        </g>
       </g>
       <g class="com.sun.star.drawing.ClosedBezierShape">
        <g id="id6">
         <rect class="BoundingBox" stroke="none" fill="none" x="8905" y="1866" width="1936" height="2261"/>
         <path fill="rgb(83,31,20)" stroke="none" d="M 8906,4055 C 8930,4078 8953,4102 8977,4126 9485,4126 9993,4126 10501,4126 10613,4014 10725,3902 10836,3791 10836,3618 10836,3445 10836,3272 10460,3025 10083,2778 9707,2531 9707,2519 9707,2508 9707,2496 9734,2470 9760,2445 9787,2419 10096,2419 10404,2419 10712,2419 10735,2397 10758,2375 10781,2354 10800,2215 10820,2076 10840,1938 10816,1914 10792,1890 10768,1866 10260,1866 9752,1866 9244,1866 9132,1978 9021,2090 8909,2201 8909,2385 8909,2568 8909,2751 9264,2983 9619,3214 9974,3446 9974,3463 9974,3479 9974,3496 9947,3522 9920,3548 9893,3573 9606,3573 9320,3573 9033,3573 9010,3595 8988,3617 8965,3639 8945,3777 8925,3916 8906,4055 Z M 10464,4039 C 9981,4039 9498,4039 9014,4039 9009,4034 9004,4029 8999,4024 9014,3910 9030,3796 9045,3682 9054,3675 9062,3668 9070,3660 9357,3660 9644,3660 9930,3660 9974,3618 10017,3576 10060,3533 10060,3488 10060,3442 10060,3397 9706,3165 9351,2933 8996,2701 8996,2547 8996,2393 8996,2239 9091,2144 9186,2048 9281,1953 9765,1953 10248,1953 10731,1953 10736,1958 10741,1964 10746,1969 10731,2082 10715,2196 10700,2310 10692,2317 10683,2325 10675,2332 10367,2332 10058,2332 9750,2332 9707,2374 9663,2417 9620,2459 9620,2499 9620,2540 9620,2580 9996,2827 10373,3075 10750,3322 10750,3466 10750,3610 10750,3753 10654,3849 10559,3944 10464,4039 Z"/>
        </g>
       </g>
       <g class="com.sun.star.drawing.ClosedBezierShape">
        <g id="id7">
         <rect class="BoundingBox" stroke="none" fill="none" x="11308" y="1866" width="1933" height="2261"/>
         <path fill="rgb(83,31,20)" stroke="none" d="M 11309,4058 C 11332,4080 11354,4103 11377,4126 11973,4126 12569,4126 13165,4126 13190,4102 13215,4078 13240,4055 13219,3916 13198,3777 13178,3639 13155,3617 13132,3595 13109,3573 12714,3573 12319,3573 11924,3573 11924,3474 11924,3375 11924,3275 12231,3275 12538,3275 12845,3275 12868,3254 12891,3232 12914,3210 12933,3072 12953,2933 12973,2794 12949,2771 12925,2747 12901,2723 12575,2723 12249,2723 11924,2723 11924,2622 11924,2520 11924,2419 12317,2419 12710,2419 13103,2419 13128,2397 13153,2375 13178,2354 13198,2215 13219,2076 13240,1938 13215,1914 13190,1890 13165,1866 12569,1866 11973,1866 11377,1866 11354,1889 11332,1912 11309,1935 11309,2642 11309,3350 11309,4058 Z M 13128,4039 C 12557,4039 11986,4039 11414,4039 11408,4033 11402,4027 11396,4020 11396,3338 11396,2655 11396,1972 11402,1966 11408,1959 11414,1953 11986,1953 12557,1953 13128,1953 13134,1958 13140,1964 13146,1969 13130,2082 13113,2196 13097,2310 13089,2317 13080,2325 13072,2332 12660,2332 12248,2332 11837,2332 11837,2491 11837,2651 11837,2810 12179,2810 12522,2810 12864,2810 12869,2815 12874,2820 12880,2825 12864,2939 12848,3053 12833,3167 12825,3174 12816,3181 12808,3189 12484,3189 12160,3189 11837,3189 11837,3346 11837,3503 11837,3660 12248,3660 12660,3660 13072,3660 13080,3668 13089,3675 13097,3682 13113,3796 13130,3910 13146,4024 13140,4029 13134,4034 13128,4039 Z"/>
        </g>
       </g>
       <g class="com.sun.star.drawing.ClosedBezierShape">
        <g id="id8">
         <rect class="BoundingBox" stroke="none" fill="none" x="13608" y="1866" width="2042" height="2265"/>
         <path fill="rgb(83,31,20)" stroke="none" d="M 13609,1938 C 13628,2097 13648,2256 13668,2416 13690,2437 13713,2459 13736,2481 13930,2481 14125,2481 14320,2481 14320,3007 14320,3534 14320,4061 14343,4084 14367,4106 14391,4129 14549,4129 14707,4129 14866,4129 14889,4106 14911,4084 14934,4061 14934,3534 14934,3007 14934,2481 15130,2481 15325,2481 15521,2481 15544,2459 15566,2437 15589,2416 15609,2256 15628,2097 15648,1938 15624,1914 15600,1890 15577,1866 14944,1866 14312,1866 13680,1866 13656,1890 13632,1914 13609,1938 Z M 13773,2394 C 13765,2387 13757,2379 13748,2372 13733,2238 13717,2103 13702,1969 13707,1964 13712,1958 13717,1953 14325,1953 14932,1953 15539,1953 15545,1958 15550,1964 15555,1969 15539,2103 15524,2238 15508,2372 15500,2379 15492,2387 15484,2394 15271,2394 15059,2394 14847,2394 14847,2937 14847,3480 14847,4024 14841,4030 14835,4036 14829,4042 14695,4042 14562,4042 14428,4042 14421,4036 14414,4030 14406,4024 14406,3480 14406,2937 14406,2394 14195,2394 13984,2394 13773,2394 Z"/>
        </g>
       </g>
       <g class="com.sun.star.drawing.ClosedBezierShape">
        <g id="id9">
         <rect class="BoundingBox" stroke="none" fill="none" x="15928" y="1866" width="2042" height="2265"/>
         <path fill="rgb(83,31,20)" stroke="none" d="M 15929,1938 C 15948,2097 15968,2256 15988,2416 16010,2437 16033,2459 16056,2481 16250,2481 16445,2481 16640,2481 16640,3007 16640,3534 16640,4061 16663,4084 16687,4106 16711,4129 16869,4129 17027,4129 17186,4129 17209,4106 17231,4084 17254,4061 17254,3534 17254,3007 17254,2481 17450,2481 17645,2481 17841,2481 17864,2459 17886,2437 17909,2416 17929,2256 17948,2097 17968,1938 17944,1914 17920,1890 17897,1866 17264,1866 16632,1866 16000,1866 15976,1890 15952,1914 15929,1938 Z M 16093,2394 C 16085,2387 16077,2379 16068,2372 16053,2238 16037,2103 16022,1969 16027,1964 16032,1958 16037,1953 16645,1953 17252,1953 17859,1953 17865,1958 17870,1964 17875,1969 17859,2103 17844,2238 17828,2372 17820,2379 17812,2387 17804,2394 17591,2394 17379,2394 17167,2394 17167,2937 17167,3480 17167,4024 17161,4030 17155,4036 17149,4042 17015,4042 16882,4042 16748,4042 16741,4036 16734,4030 16726,4024 16726,3480 16726,2937 16726,2394 16515,2394 16304,2394 16093,2394 Z"/>
        </g>
       </g>
       <g class="com.sun.star.drawing.ClosedBezierShape">
        <g id="id10">
         <rect class="BoundingBox" stroke="none" fill="none" x="18340" y="1866" width="1933" height="2261"/>
         <path fill="rgb(83,31,20)" stroke="none" d="M 18341,4058 C 18364,4080 18386,4103 18409,4126 19005,4126 19601,4126 20197,4126 20222,4102 20247,4078 20272,4055 20251,3916 20230,3777 20210,3639 20187,3617 20164,3595 20141,3573 19746,3573 19351,3573 18956,3573 18956,3474 18956,3375 18956,3275 19263,3275 19570,3275 19877,3275 19900,3254 19923,3232 19946,3210 19965,3072 19985,2933 20005,2794 19981,2771 19957,2747 19933,2723 19607,2723 19281,2723 18956,2723 18956,2622 18956,2520 18956,2419 19349,2419 19742,2419 20135,2419 20160,2397 20185,2375 20210,2354 20230,2215 20251,2076 20272,1938 20247,1914 20222,1890 20197,1866 19601,1866 19005,1866 18409,1866 18386,1889 18364,1912 18341,1935 18341,2642 18341,3350 18341,4058 Z M 20160,4039 C 19589,4039 19018,4039 18446,4039 18440,4033 18434,4027 18428,4020 18428,3338 18428,2655 18428,1972 18434,1966 18440,1959 18446,1953 19018,1953 19589,1953 20160,1953 20166,1958 20172,1964 20178,1969 20162,2082 20145,2196 20129,2310 20121,2317 20112,2325 20104,2332 19692,2332 19280,2332 18869,2332 18869,2491 18869,2651 18869,2810 19211,2810 19554,2810 19896,2810 19901,2815 19906,2820 19912,2825 19896,2939 19880,3053 19865,3167 19857,3174 19848,3181 19840,3189 19516,3189 19192,3189 18869,3189 18869,3346 18869,3503 18869,3660 19280,3660 19692,3660 20104,3660 20112,3668 20121,3675 20129,3682 20145,3796 20162,3910 20178,4024 20172,4029 20166,4034 20160,4039 Z"/>
        </g>
       </g>
      </g>
      <g class="Group">
       <g class="com.sun.star.drawing.ClosedBezierShape">
        <g id="id11">
         <rect class="BoundingBox" stroke="none" fill="none" x="5183" y="4590" width="1257" height="1334"/>
         <path fill="rgb(72,27,17)" stroke="none" d="M 5374,5923 C 5665,5923 5957,5923 6248,5923 6312,5860 6375,5796 6439,5733 6439,5566 6439,5399 6439,5232 6430,5223 6421,5214 6412,5205 6232,5205 6053,5205 5873,5205 5864,5214 5854,5223 5844,5232 5834,5289 5823,5346 5812,5403 5821,5412 5830,5421 5839,5430 5931,5430 6023,5430 6115,5430 6115,5477 6115,5525 6115,5573 6093,5594 6072,5616 6050,5637 5890,5637 5730,5637 5570,5637 5549,5616 5528,5595 5507,5574 5507,5362 5507,5150 5507,4938 5528,4917 5549,4897 5570,4876 5730,4876 5890,4876 6050,4876 6072,4897 6093,4919 6115,4940 6115,4969 6115,4998 6115,5026 6124,5035 6133,5044 6142,5053 6232,5053 6322,5053 6412,5053 6421,5044 6430,5035 6439,5026 6439,4944 6439,4862 6439,4780 6375,4717 6312,4653 6248,4590 5957,4590 5665,4590 5374,4590 5310,4653 5247,4717 5183,4780 5183,5098 5183,5415 5183,5733 5247,5796 5310,5860 5374,5923 Z"/>
        </g>
       </g>
       <g class="com.sun.star.drawing.ClosedBezierShape">
        <g id="id12">
         <rect class="BoundingBox" stroke="none" fill="none" x="6779" y="4590" width="1257" height="1334"/>
         <path fill="rgb(72,27,17)" stroke="none" d="M 6806,5923 C 6896,5923 6986,5923 7077,5923 7086,5914 7094,5905 7103,5896 7103,5748 7103,5599 7103,5451 7282,5451 7461,5451 7641,5451 7664,5475 7687,5499 7711,5523 7711,5648 7711,5772 7711,5896 7720,5905 7729,5914 7738,5923 7828,5923 7918,5923 8008,5923 8017,5914 8026,5905 8035,5896 8035,5769 8035,5641 8035,5514 7973,5449 7910,5385 7848,5321 7848,5317 7848,5314 7848,5310 7910,5245 7973,5180 8035,5115 8035,5004 8035,4892 8035,4780 7971,4717 7908,4653 7844,4590 7498,4590 7152,4590 6806,4590 6797,4599 6788,4608 6779,4617 6779,4703 6779,4789 6779,4876 7069,4876 7359,4876 7648,4876 7669,4897 7690,4918 7711,4939 7711,4990 7711,5041 7711,5093 7688,5117 7665,5141 7642,5165 7355,5165 7067,5165 6779,5165 6779,5409 6779,5653 6779,5896 6788,5905 6797,5914 6806,5923 Z"/>
        </g>
       </g>
       <g class="com.sun.star.drawing.ClosedBezierShape">
        <g id="id13">
         <rect class="BoundingBox" stroke="none" fill="none" x="8375" y="4590" width="1257" height="1334"/>
         <path fill="rgb(72,27,17)" stroke="none" d="M 8402,5923 C 8492,5923 8582,5923 8673,5923 8682,5914 8690,5905 8699,5896 8699,5724 8699,5552 8699,5380 8902,5525 9104,5670 9307,5814 9307,5842 9307,5869 9307,5896 9316,5905 9325,5914 9334,5923 9424,5923 9514,5923 9604,5923 9613,5914 9622,5905 9631,5896 9631,5524 9631,5152 9631,4780 9567,4717 9504,4653 9440,4590 9149,4590 8857,4590 8566,4590 8502,4653 8439,4717 8375,4780 8375,5152 8375,5524 8375,5896 8384,5905 8393,5914 8402,5923 Z M 9307,5470 C 9104,5325 8902,5180 8699,5035 8699,5003 8699,4971 8699,4938 8721,4917 8742,4897 8764,4876 8924,4876 9084,4876 9244,4876 9265,4897 9286,4918 9307,4939 9307,5116 9307,5293 9307,5470 Z"/>
        </g>
       </g>
       <g class="com.sun.star.drawing.ClosedBezierShape">
        <g id="id14">
         <rect class="BoundingBox" stroke="none" fill="none" x="9975" y="4590" width="1257" height="1334"/>
         <path fill="rgb(72,27,17)" stroke="none" d="M 10002,5923 C 10092,5923 10182,5923 10273,5923 10282,5914 10290,5905 10299,5896 10299,5799 10299,5702 10299,5605 10546,5605 10793,5605 11040,5605 11104,5542 11167,5478 11231,5415 11231,5203 11231,4992 11231,4780 11167,4717 11104,4653 11040,4590 10694,4590 10348,4590 10002,4590 9993,4599 9984,4608 9975,4617 9975,4703 9975,4789 9975,4876 10264,4876 10553,4876 10842,4876 10864,4897 10885,4919 10907,4940 10907,5045 10907,5150 10907,5255 10885,5276 10864,5298 10842,5319 10553,5319 10264,5319 9975,5319 9975,5512 9975,5704 9975,5896 9984,5905 9993,5914 10002,5923 Z"/>
        </g>
       </g>
       <g class="com.sun.star.drawing.ClosedBezierShape">
        <g id="id15">
         <rect class="BoundingBox" stroke="none" fill="none" x="11563" y="4590" width="1334" height="1335"/>
         <path fill="rgb(72,27,17)" stroke="none" d="M 11590,5923 C 11680,5923 11770,5923 11861,5923 11870,5914 11878,5905 11887,5896 11887,5730 11887,5564 11887,5398 12115,5398 12343,5398 12571,5398 12571,5564 12571,5730 12571,5896 12580,5905 12589,5914 12598,5923 12688,5923 12778,5923 12868,5923 12877,5914 12886,5905 12895,5896 12895,5470 12895,5043 12895,4617 12886,4608 12877,4599 12868,4590 12778,4590 12688,4590 12598,4590 12589,4599 12580,4608 12571,4617 12571,4782 12571,4948 12571,5114 12343,5114 12115,5114 11887,5114 11887,4948 11887,4782 11887,4617 11878,4608 11870,4599 11861,4590 11770,4590 11680,4590 11590,4590 11581,4599 11572,4608 11563,4617 11563,5043 11563,5470 11563,5896 11572,5905 11581,5914 11590,5923 Z"/>
        </g>
       </g>
       <g class="com.sun.star.drawing.ClosedBezierShape">
        <g id="id16">
         <rect class="BoundingBox" stroke="none" fill="none" x="13235" y="4590" width="326" height="1335"/>
         <path fill="rgb(72,27,17)" stroke="none" d="M 13262,5923 C 13352,5923 13442,5923 13533,5923 13542,5914 13550,5905 13559,5896 13559,5470 13559,5043 13559,4617 13550,4608 13542,4599 13533,4590 13442,4590 13352,4590 13262,4590 13253,4599 13244,4608 13235,4617 13235,5043 13235,5470 13235,5896 13244,5905 13253,5914 13262,5923 Z"/>
        </g>
       </g>
       <g class="com.sun.star.drawing.ClosedBezierShape">
        <g id="id17">
         <rect class="BoundingBox" stroke="none" fill="none" x="13904" y="4590" width="1257" height="1334"/>
         <path fill="rgb(72,27,17)" stroke="none" d="M 14095,5923 C 14386,5923 14678,5923 14969,5923 15033,5860 15096,5796 15160,5733 15160,5651 15160,5569 15160,5487 15151,5478 15142,5469 15133,5460 15043,5460 14953,5460 14863,5460 14854,5469 14845,5478 14836,5487 14836,5515 14836,5544 14836,5572 14814,5594 14793,5616 14771,5637 14611,5637 14451,5637 14291,5637 14270,5616 14249,5595 14228,5574 14228,5362 14228,5150 14228,4938 14249,4917 14270,4897 14291,4876 14451,4876 14611,4876 14771,4876 14793,4897 14814,4919 14836,4940 14836,4969 14836,4998 14836,5026 14845,5035 14854,5044 14863,5053 14953,5053 15043,5053 15133,5053 15142,5044 15151,5035 15160,5026 15160,4944 15160,4862 15160,4780 15096,4717 15033,4653 14969,4590 14678,4590 14386,4590 14095,4590 14031,4653 13968,4717 13904,4780 13904,5098 13904,5415 13904,5733 13968,5796 14031,5860 14095,5923 Z"/>
        </g>
       </g>
       <g class="com.sun.star.drawing.ClosedBezierShape">
        <g id="id18">
         <rect class="BoundingBox" stroke="none" fill="none" x="15492" y="4589" width="1132" height="1335"/>
         <path fill="rgb(72,27,17)" stroke="none" d="M 15519,5923 C 15823,5923 16127,5923 16432,5923 16495,5860 16559,5796 16622,5733 16622,5635 16622,5538 16622,5441 16391,5289 16160,5138 15929,4986 15929,4970 15929,4954 15929,4938 15950,4917 15972,4897 15993,4876 16183,4876 16372,4876 16561,4876 16571,4867 16580,4858 16590,4849 16601,4772 16611,4694 16622,4617 16613,4608 16604,4599 16595,4590 16291,4590 15987,4590 15683,4590 15619,4653 15556,4717 15492,4780 15492,4884 15492,4987 15492,5091 15710,5233 15928,5375 16146,5517 16146,5536 16146,5555 16146,5574 16124,5595 16103,5616 16081,5637 15905,5637 15729,5637 15553,5637 15544,5646 15534,5655 15525,5664 15514,5741 15503,5819 15492,5896 15501,5905 15510,5914 15519,5923 Z"/>
        </g>
       </g>
       <g class="com.sun.star.drawing.ClosedBezierShape">
        <g id="id19">
         <rect class="BoundingBox" stroke="none" fill="none" x="5077" y="4484" width="1257" height="1335"/>
         <path fill="rgb(179,56,28)" stroke="none" d="M 5268,5817 C 5559,5817 5851,5817 6142,5817 6206,5754 6269,5690 6333,5627 6333,5460 6333,5293 6333,5126 6324,5117 6315,5108 6306,5099 6126,5099 5947,5099 5767,5099 5758,5108 5748,5117 5738,5126 5728,5183 5717,5240 5706,5297 5715,5306 5724,5315 5733,5324 5825,5324 5917,5324 6009,5324 6009,5371 6009,5419 6009,5467 5987,5488 5966,5510 5944,5531 5784,5531 5624,5531 5464,5531 5443,5510 5422,5489 5401,5468 5401,5256 5401,5044 5401,4832 5422,4811 5443,4791 5464,4770 5624,4770 5784,4770 5944,4770 5966,4791 5987,4813 6009,4834 6009,4863 6009,4892 6009,4920 6018,4929 6027,4938 6036,4947 6126,4947 6216,4947 6306,4947 6315,4938 6324,4929 6333,4920 6333,4838 6333,4756 6333,4674 6269,4611 6206,4547 6142,4484 5851,4484 5559,4484 5268,4484 5204,4547 5141,4611 5077,4674 5077,4992 5077,5309 5077,5627 5141,5690 5204,5754 5268,5817 Z"/>
        </g>
       </g>
       <g class="com.sun.star.drawing.ClosedBezierShape">
        <g id="id20">
         <rect class="BoundingBox" stroke="none" fill="none" x="6673" y="4484" width="1257" height="1335"/>
         <path fill="rgb(179,56,28)" stroke="none" d="M 6700,5817 C 6790,5817 6880,5817 6971,5817 6980,5808 6988,5799 6997,5790 6997,5642 6997,5493 6997,5345 7176,5345 7355,5345 7535,5345 7558,5369 7581,5393 7605,5417 7605,5542 7605,5666 7605,5790 7614,5799 7623,5808 7632,5817 7722,5817 7812,5817 7902,5817 7911,5808 7920,5799 7929,5790 7929,5663 7929,5535 7929,5408 7867,5343 7804,5279 7742,5215 7742,5211 7742,5208 7742,5204 7804,5139 7867,5074 7929,5009 7929,4898 7929,4786 7929,4674 7865,4611 7802,4547 7738,4484 7392,4484 7046,4484 6700,4484 6691,4493 6682,4502 6673,4511 6673,4597 6673,4683 6673,4770 6963,4770 7253,4770 7542,4770 7563,4791 7584,4812 7605,4833 7605,4884 7605,4935 7605,4987 7582,5011 7559,5035 7536,5059 7249,5059 6961,5059 6673,5059 6673,5303 6673,5547 6673,5790 6682,5799 6691,5808 6700,5817 Z"/>
        </g>
       </g>
       <g class="com.sun.star.drawing.ClosedBezierShape">
        <g id="id21">
         <rect class="BoundingBox" stroke="none" fill="none" x="8269" y="4484" width="1257" height="1335"/>
         <path fill="rgb(179,56,28)" stroke="none" d="M 8296,5817 C 8386,5817 8476,5817 8567,5817 8576,5808 8584,5799 8593,5790 8593,5618 8593,5446 8593,5274 8796,5419 8998,5564 9201,5708 9201,5736 9201,5763 9201,5790 9210,5799 9219,5808 9228,5817 9318,5817 9408,5817 9498,5817 9507,5808 9516,5799 9525,5790 9525,5418 9525,5046 9525,4674 9461,4611 9398,4547 9334,4484 9043,4484 8751,4484 8460,4484 8396,4547 8333,4611 8269,4674 8269,5046 8269,5418 8269,5790 8278,5799 8287,5808 8296,5817 Z M 9201,5364 C 8998,5219 8796,5074 8593,4929 8593,4897 8593,4865 8593,4832 8615,4811 8636,4791 8658,4770 8818,4770 8978,4770 9138,4770 9159,4791 9180,4812 9201,4833 9201,5010 9201,5187 9201,5364 Z"/>
        </g>
       </g>
       <g class="com.sun.star.drawing.ClosedBezierShape">
        <g id="id22">
         <rect class="BoundingBox" stroke="none" fill="none" x="9869" y="4484" width="1257" height="1335"/>
         <path fill="rgb(179,56,28)" stroke="none" d="M 9896,5817 C 9986,5817 10076,5817 10167,5817 10176,5808 10184,5799 10193,5790 10193,5693 10193,5596 10193,5499 10440,5499 10687,5499 10934,5499 10998,5436 11061,5372 11125,5309 11125,5097 11125,4886 11125,4674 11061,4611 10998,4547 10934,4484 10588,4484 10242,4484 9896,4484 9887,4493 9878,4502 9869,4511 9869,4597 9869,4683 9869,4770 10158,4770 10447,4770 10736,4770 10758,4791 10779,4813 10801,4834 10801,4939 10801,5044 10801,5149 10779,5170 10758,5192 10736,5213 10447,5213 10158,5213 9869,5213 9869,5406 9869,5598 9869,5790 9878,5799 9887,5808 9896,5817 Z"/>
        </g>
       </g>
       <g class="com.sun.star.drawing.ClosedBezierShape">
        <g id="id23">
         <rect class="BoundingBox" stroke="none" fill="none" x="11457" y="4484" width="1334" height="1335"/>
         <path fill="rgb(179,56,28)" stroke="none" d="M 11484,5817 C 11574,5817 11664,5817 11755,5817 11764,5808 11772,5799 11781,5790 11781,5624 11781,5458 11781,5292 12009,5292 12237,5292 12465,5292 12465,5458 12465,5624 12465,5790 12474,5799 12483,5808 12492,5817 12582,5817 12672,5817 12762,5817 12771,5808 12780,5799 12789,5790 12789,5364 12789,4937 12789,4511 12780,4502 12771,4493 12762,4484 12672,4484 12582,4484 12492,4484 12483,4493 12474,4502 12465,4511 12465,4676 12465,4842 12465,5008 12237,5008 12009,5008 11781,5008 11781,4842 11781,4676 11781,4511 11772,4502 11764,4493 11755,4484 11664,4484 11574,4484 11484,4484 11475,4493 11466,4502 11457,4511 11457,4937 11457,5364 11457,5790 11466,5799 11475,5808 11484,5817 Z"/>
        </g>
       </g>
       <g class="com.sun.star.drawing.ClosedBezierShape">
        <g id="id24">
         <rect class="BoundingBox" stroke="none" fill="none" x="13129" y="4484" width="326" height="1335"/>
         <path fill="rgb(179,56,28)" stroke="none" d="M 13156,5817 C 13246,5817 13336,5817 13427,5817 13436,5808 13444,5799 13453,5790 13453,5364 13453,4937 13453,4511 13444,4502 13436,4493 13427,4484 13336,4484 13246,4484 13156,4484 13147,4493 13138,4502 13129,4511 13129,4937 13129,5364 13129,5790 13138,5799 13147,5808 13156,5817 Z"/>
        </g>
       </g>
       <g class="com.sun.star.drawing.ClosedBezierShape">
        <g id="id25">
         <rect class="BoundingBox" stroke="none" fill="none" x="13798" y="4484" width="1257" height="1335"/>
         <path fill="rgb(179,56,28)" stroke="none" d="M 13989,5817 C 14280,5817 14572,5817 14863,5817 14927,5754 14990,5690 15054,5627 15054,5545 15054,5463 15054,5381 15045,5372 15036,5363 15027,5354 14937,5354 14847,5354 14757,5354 14748,5363 14739,5372 14730,5381 14730,5409 14730,5438 14730,5466 14708,5488 14687,5510 14665,5531 14505,5531 14345,5531 14185,5531 14164,5510 14143,5489 14122,5468 14122,5256 14122,5044 14122,4832 14143,4811 14164,4791 14185,4770 14345,4770 14505,4770 14665,4770 14687,4791 14708,4813 14730,4834 14730,4863 14730,4892 14730,4920 14739,4929 14748,4938 14757,4947 14847,4947 14937,4947 15027,4947 15036,4938 15045,4929 15054,4920 15054,4838 15054,4756 15054,4674 14990,4611 14927,4547 14863,4484 14572,4484 14280,4484 13989,4484 13925,4547 13862,4611 13798,4674 13798,4992 13798,5309 13798,5627 13862,5690 13925,5754 13989,5817 Z"/>
        </g>
       </g>
       <g class="com.sun.star.drawing.ClosedBezierShape">
        <g id="id26">
         <rect class="BoundingBox" stroke="none" fill="none" x="15386" y="4484" width="1132" height="1334"/>
         <path fill="rgb(179,56,28)" stroke="none" d="M 15413,5817 C 15717,5817 16021,5817 16326,5817 16389,5754 16453,5690 16516,5627 16516,5529 16516,5432 16516,5335 16285,5183 16054,5032 15823,4880 15823,4864 15823,4848 15823,4832 15844,4811 15866,4791 15887,4770 16077,4770 16266,4770 16455,4770 16465,4761 16474,4752 16484,4743 16495,4666 16505,4588 16516,4511 16507,4502 16498,4493 16489,4484 16185,4484 15881,4484 15577,4484 15513,4547 15450,4611 15386,4674 15386,4778 15386,4881 15386,4985 15604,5127 15822,5269 16040,5411 16040,5430 16040,5449 16040,5468 16018,5489 15997,5510 15975,5531 15799,5531 15623,5531 15447,5531 15438,5540 15428,5549 15419,5558 15408,5635 15397,5713 15386,5790 15395,5799 15404,5808 15413,5817 Z"/>
        </g>
       </g>
      </g>
     </g>
    </g>
   </g>
  </g>
 </g>
</svg>