<?xml version="1.0" encoding="UTF-8"?>
<!DOCTYPE svg PUBLIC "-//W3C//DTD SVG 1.1//EN" "http://www.w3.org/Graphics/SVG/1.1/DTD/svg11.dtd">
<svg version="1.2" width="215.9mm" height="76.2mm" viewBox="0 0 21590 7620" preserveAspectRatio="xMidYMid" fill-rule="evenodd" stroke-width="28.222" stroke-linejoin="round" xmlns="http://www.w3.org/2000/svg" xmlns:ooo="http://xml.openoffice.org/svg/export" xmlns:xlink="http://www.w3.org/1999/xlink" xmlns:presentation="http://sun.com/xmlns/staroffice/presentation" xmlns:smil="http://www.w3.org/2001/SMIL20/" xmlns:anim="urn:oasis:names:tc:opendocument:xmlns:animation:1.0" xmlns:svg="urn:oasis:names:tc:opendocument:xmlns:svg-compatible:1.0" xml:space="preserve">
 <defs class="ClipPathGroup">
  <clipPath id="presentation_clip_path" clipPathUnits="userSpaceOnUse">
   <rect x="0" y="0" width="21590" height="7620"/>
  </clipPath>
  <clipPath id="presentation_clip_path_shrink" clipPathUnits="userSpaceOnUse">
   <rect x="21" y="7" width="21547" height="7605"/>
  </clipPath>
 </defs>
 <defs class="TextShapeIndex">
  <g ooo:slide="id1" ooo:id-list="id3 id4 id5 id6 id7 id8 id9 id10 id11 id12 id13 id14 id15 id16 id17 id18 id19 id20 id21 id22 id23 id24 id25 id26 id27 id28 id29 id30 id31 id32 id33 id34 id35 id36"/>
 </defs>
 <defs class="EmbeddedBulletChars">
  <g id="bullet-char-template-57356" transform="scale(0.00048828125,-0.00048828125)">
   <path d="M 580,1141 L 1163,571 580,0 -4,571 580,1141 Z"/>
  </g>
  <g id="bullet-char-template-57354" transform="scale(0.00048828125,-0.00048828125)">
   <path d="M 8,1128 L 1137,1128 1137,0 8,0 8,1128 Z"/>
  </g>
  <g id="bullet-char-template-10146" transform="scale(0.00048828125,-0.00048828125)">
   <path d="M 174,0 L 602,739 174,1481 1456,739 174,0 Z M 1358,739 L 309,1346 659,739 1358,739 Z"/>
  </g>
  <g id="bullet-char-template-10132" transform="scale(0.00048828125,-0.00048828125)">
   <path d="M 2015,739 L 1276,0 717,0 1260,543 174,543 174,936 1260,936 717,1481 1274,1481 2015,739 Z"/>
  </g>
  <g id="bullet-char-template-10007" transform="scale(0.00048828125,-0.00048828125)">
   <path d="M 0,-2 C -7,14 -16,27 -25,37 L 356,567 C 262,823 215,952 215,954 215,979 228,992 255,992 264,992 276,990 289,987 310,991 331,999 354,1012 L 381,999 492,748 772,1049 836,1024 860,1049 C 881,1039 901,1025 922,1006 886,937 835,863 770,784 769,783 710,716 594,584 L 774,223 C 774,196 753,168 711,139 L 727,119 C 717,90 699,76 672,76 641,76 570,178 457,381 L 164,-76 C 142,-110 111,-127 72,-127 30,-127 9,-110 8,-76 1,-67 -2,-52 -2,-32 -2,-23 -1,-13 0,-2 Z"/>
  </g>
  <g id="bullet-char-template-10004" transform="scale(0.00048828125,-0.00048828125)">
   <path d="M 285,-33 C 182,-33 111,30 74,156 52,228 41,333 41,471 41,549 55,616 82,672 116,743 169,778 240,778 293,778 328,747 346,684 L 369,508 C 377,444 397,411 428,410 L 1163,1116 C 1174,1127 1196,1133 1229,1133 1271,1133 1292,1118 1292,1087 L 1292,965 C 1292,929 1282,901 1262,881 L 442,47 C 390,-6 338,-33 285,-33 Z"/>
  </g>
  <g id="bullet-char-template-9679" transform="scale(0.00048828125,-0.00048828125)">
   <path d="M 813,0 C 632,0 489,54 383,161 276,268 223,411 223,592 223,773 276,916 383,1023 489,1130 632,1184 813,1184 992,1184 1136,1130 1245,1023 1353,916 1407,772 1407,592 1407,412 1353,268 1245,161 1136,54 992,0 813,0 Z"/>
  </g>
  <g id="bullet-char-template-8226" transform="scale(0.00048828125,-0.00048828125)">
   <path d="M 346,457 C 273,457 209,483 155,535 101,586 74,649 74,723 74,796 101,859 155,911 209,963 273,989 346,989 419,989 480,963 531,910 582,859 608,796 608,723 608,648 583,586 532,535 482,483 420,457 346,457 Z"/>
  </g>
  <g id="bullet-char-template-8211" transform="scale(0.00048828125,-0.00048828125)">
   <path d="M -4,459 L 1135,459 1135,606 -4,606 -4,459 Z"/>
  </g>
  <g id="bullet-char-template-61548" transform="scale(0.00048828125,-0.00048828125)">
   <path d="M 173,740 C 173,903 231,1043 346,1159 462,1274 601,1332 765,1332 928,1332 1067,1274 1183,1159 1299,1043 1357,903 1357,740 1357,577 1299,437 1183,322 1067,206 928,148 765,148 601,148 462,206 346,322 231,437 173,577 173,740 Z"/>
  </g>
 </defs>
 <g>
  <g id="id2" class="Master_Slide">
   <g id="bg-id2" class="Background"/>
   <g id="bo-id2" class="BackgroundObjects"/>
  </g>
 </g>
 <g class="SlideGroup">
  <g>
   <g id="container-id1">
    <g id="id1" class="Slide" clip-path="url(#presentation_clip_path)">
     <g class="Page">
      <g class="Group">
       <g class="com.sun.star.drawing.ClosedBezierShape">
        <g id="id3">
         <rect class="BoundingBox" stroke="none" fill="none" x="1321" y="1866" width="2135" height="2261"/>
         <path fill="rgb(83,31,20)" stroke="none" d="M 3454,2201 C 3343,2090 3231,1978 3119,1866 2632,1866 2144,1866 1657,1866 1545,1978 1434,2090 1322,2201 1322,2731 1322,3261 1322,3791 1434,3902 1545,4014 1657,4126 2144,4126 2632,4126 3119,4126 3231,4014 3343,3902 3454,3791 3454,3645 3454,3499 3454,3353 3432,3330 3409,3308 3386,3285 3227,3285 3067,3285 2908,3285 2885,3308 2863,3330 2840,3353 2840,3400 2840,3446 2840,3493 2813,3520 2786,3547 2759,3573 2511,3573 2262,3573 2014,3573 1988,3548 1962,3522 1937,3496 1937,3163 1937,2830 1937,2496 1962,2470 1988,2445 2014,2419 2262,2419 2511,2419 2759,2419 2786,2446 2813,2473 2840,2499 2840,2546 2840,2593 2840,2639 2863,2662 2885,2685 2908,2707 3067,2707 3227,2707 3386,2707 3409,2685 3432,2662 3454,2639 3454,2493 3454,2347 3454,2201 Z M 1694,1953 C 2157,1953 2619,1953 3082,1953 3177,2048 3272,2144 3367,2239 3367,2360 3367,2481 3367,2602 3361,2608 3355,2614 3349,2621 3214,2621 3080,2621 2945,2621 2939,2614 2933,2608 2927,2602 2927,2555 2927,2509 2927,2462 2883,2419 2840,2375 2796,2332 2523,2332 2250,2332 1977,2332 1934,2374 1892,2417 1850,2459 1850,2817 1850,3175 1850,3533 1892,3576 1934,3618 1977,3660 2250,3660 2523,3660 2796,3660 2840,3617 2883,3573 2927,3530 2927,3483 2927,3437 2927,3390 2933,3384 2939,3378 2945,3372 3080,3372 3214,3372 3349,3372 3355,3378 3361,3384 3367,3390 3367,3511 3367,3632 3367,3753 3272,3849 3177,3944 3082,4039 2619,4039 2157,4039 1694,4039 1599,3944 1504,3849 1409,3753 1409,3249 1409,2744 1409,2239 1504,2144 1599,2048 1694,1953 Z"/>
        </g>
       </g>
       <g class="com.sun.star.drawing.ClosedBezierShape">
        <g id="id4">
         <rect class="BoundingBox" stroke="none" fill="none" x="3908" y="1866" width="2135" height="2261"/>
         <path fill="rgb(83,31,20)" stroke="none" d="M 6041,2201 C 5930,2090 5818,1978 5706,1866 5219,1866 4731,1866 4244,1866 4132,1978 4021,2090 3909,2201 3909,2820 3909,3439 3909,4058 3932,4080 3954,4103 3977,4126 4137,4126 4296,4126 4455,4126 4478,4103 4501,4080 4524,4058 4524,3799 4524,3540 4524,3282 4825,3497 5126,3712 5427,3927 5427,3971 5427,4014 5427,4058 5450,4080 5472,4103 5495,4126 5654,4126 5814,4126 5973,4126 5996,4103 6019,4080 6041,4058 6041,3439 6041,2820 6041,2201 Z M 4281,1953 C 4744,1953 5206,1953 5669,1953 5764,2048 5859,2144 5954,2239 5954,2833 5954,3427 5954,4020 5948,4027 5942,4033 5936,4039 5801,4039 5667,4039 5532,4039 5526,4033 5520,4027 5514,4020 5514,3975 5514,3929 5514,3884 5155,3627 4796,3371 4437,3114 4437,3416 4437,3718 4437,4020 4430,4027 4424,4033 4418,4039 4283,4039 4149,4039 4014,4039 4008,4033 4002,4027 3996,4020 3996,3427 3996,2833 3996,2239 4091,2144 4186,2048 4281,1953 Z M 4437,2658 C 4796,2914 5155,3171 5514,3428 5514,3105 5514,2782 5514,2459 5471,2417 5429,2374 5386,2332 5113,2332 4840,2332 4567,2332 4523,2374 4480,2417 4437,2459 4437,2525 4437,2592 4437,2658 Z M 5427,2496 C 5427,2751 5427,3005 5427,3260 5126,3045 4825,2830 4524,2614 4524,2575 4524,2536 4524,2496 4550,2470 4577,2445 4604,2419 4853,2419 5101,2419 5349,2419 5375,2445 5401,2470 5427,2496 Z"/>
        </g>
       </g>
       <g class="com.sun.star.drawing.ClosedBezierShape">
        <g id="id5">
         <rect class="BoundingBox" stroke="none" fill="none" x="6504" y="1866" width="1936" height="2261"/>
         <path fill="rgb(83,31,20)" stroke="none" d="M 6505,4055 C 6529,4078 6552,4102 6576,4126 7084,4126 7592,4126 8100,4126 8212,4014 8324,3902 8435,3791 8435,3618 8435,3445 8435,3272 8059,3025 7682,2778 7306,2531 7306,2519 7306,2508 7306,2496 7333,2470 7359,2445 7386,2419 7695,2419 8003,2419 8311,2419 8334,2397 8357,2375 8380,2354 8399,2215 8419,2076 8439,1938 8415,1914 8391,1890 8367,1866 7859,1866 7351,1866 6843,1866 6731,1978 6620,2090 6508,2201 6508,2385 6508,2568 6508,2751 6863,2983 7218,3214 7573,3446 7573,3463 7573,3479 7573,3496 7546,3522 7519,3548 7492,3573 7205,3573 6919,3573 6632,3573 6609,3595 6587,3617 6564,3639 6544,3777 6524,3916 6505,4055 Z M 8063,4039 C 7580,4039 7097,4039 6613,4039 6608,4034 6603,4029 6598,4024 6613,3910 6629,3796 6644,3682 6653,3675 6661,3668 6669,3660 6956,3660 7243,3660 7529,3660 7573,3618 7616,3576 7659,3533 7659,3488 7659,3442 7659,3397 7305,3165 6950,2933 6595,2701 6595,2547 6595,2393 6595,2239 6690,2144 6785,2048 6880,1953 7364,1953 7847,1953 8330,1953 8335,1958 8340,1964 8345,1969 8330,2082 8314,2196 8299,2310 8291,2317 8282,2325 8274,2332 7966,2332 7657,2332 7349,2332 7306,2374 7262,2417 7219,2459 7219,2499 7219,2540 7219,2580 7595,2827 7972,3075 8349,3322 8349,3466 8349,3610 8349,3753 8253,3849 8158,3944 8063,4039 Z"/>
        </g>
       </g>
       <g class="com.sun.star.drawing.ClosedBezierShape">
        <g id="id6">
         <rect class="BoundingBox" stroke="none" fill="none" x="8905" y="1866" width="1936" height="2261"/>
         <path fill="rgb(83,31,20)" stroke="none" d="M 8906,4055 C 8930,4078 8953,4102 8977,4126 9485,4126 9993,4126 10501,4126 10613,4014 10725,3902 10836,3791 10836,3618 10836,3445 10836,3272 10460,3025 10083,2778 9707,2531 9707,2519 9707,2508 9707,2496 9734,2470 9760,2445 9787,2419 10096,2419 10404,2419 10712,2419 10735,2397 10758,2375 10781,2354 10800,2215 10820,2076 10840,1938 10816,1914 10792,1890 10768,1866 10260,1866 9752,1866 9244,1866 9132,1978 9021,2090 8909,2201 8909,2385 8909,2568 8909,2751 9264,2983 9619,3214 9974,3446 9974,3463 9974,3479 9974,3496 9947,3522 9920,3548 9893,3573 9606,3573 9320,3573 9033,3573 9010,3595 8988,3617 8965,3639 8945,3777 8925,3916 8906,4055 Z M 10464,4039 C 9981,4039 9498,4039 9014,4039 9009,4034 9004,4029 8999,4024 9014,3910 9030,3796 9045,3682 9054,3675 9062,3668 9070,3660 9357,3660 9644,3660 9930,3660 9974,3618 10017,3576 10060,3533 10060,3488 10060,3442 10060,3397 9706,3165 9351,2933 8996,2701 8996,2547 8996,2393 8996,2239 9091,2144 9186,2048 9281,1953 9765,1953 10248,1953 10731,1953 10736,1958 10741,1964 10746,1969 10731,2082 10715,2196 10700,2310 10692,2317 10683,2325 10675,2332 10367,2332 10058,2332 9750,2332 9707,2374 9663,2417 9620,2459 9620,2499 9620,2540 9620,2580 9996,2827 10373,3075 10750,3322 10750,3466 10750,3610 10750,3753 10654,3849 10559,3944 10464,4039 Z"/>
        </g>
       </g>
       <g class="com.sun.star.drawing.ClosedBezierShape">
        <g id="id7">
         <rect class="BoundingBox" stroke="none" fill="none" x="11308" y="1866" width="1933" height="2261"/>
         <path fill="rgb(83,31,20)" stroke="none" d="M 11309,4058 C 11332,4080 11354,4103 11377,4126 11973,4126 12569,4126 13165,4126 13190,4102 13215,4078 13240,4055 13219,3916 13198,3777 13178,3639 13155,3617 13132,3595 13109,3573 12714,3573 12319,3573 11924,3573 11924,3474 11924,3375 11924,3275 12231,3275 12538,3275 12845,3275 12868,3254 12891,3232 12914,3210 12933,3072 12953,2933 12973,2794 12949,2771 12925,2747 12901,2723 12575,2723 12249,2723 11924,2723 11924,2622 11924,2520 11924,2419 12317,2419 12710,2419 13103,2419 13128,2397 13153,2375 13178,2354 13198,2215 13219,2076 13240,1938 13215,1914 13190,1890 13165,1866 12569,1866 11973,1866 11377,1866 11354,1889 11332,1912 11309,1935 11309,2642 11309,3350 11309,4058 Z M 13128,4039 C 12557,4039 11986,4039 11414,4039 11408,4033 11402,4027 11396,4020 11396,3338 11396,2655 11396,1972 11402,1966 11408,1959 11414,1953 11986,1953 12557,1953 13128,1953 13134,1958 13140,1964 13146,1969 13130,2082 13113,2196 13097,2310 13089,2317 13080,2325 13072,2332 12660,2332 12248,2332 11837,2332 11837,2491 11837,2651 11837,2810 12179,2810 12522,2810 12864,2810 12869,2815 12874,2820 12880,2825 12864,2939 12848,3053 12833,3167 12825,3174 12816,3181 12808,3189 12484,3189 12160,3189 11837,3189 11837,3346 11837,3503 11837,3660 12248,3660 12660,3660 13072,3660 13080,3668 13089,3675 13097,3682 13113,3796 13130,3910 13146,4024 13140,4029 13134,4034 13128,4039 Z"/>
        </g>
       </g>
       <g class="com.sun.star.drawing.ClosedBezierShape">
        <g id="id8">
         <rect class="BoundingBox" stroke="none" fill="none" x="13608" y="1866" width="2042" height="2265"/>
         <path fill="rgb(83,31,20)" stroke="none" d="M 13609,1938 C 13628,2097 13648,2256 13668,2416 13690,2437 13713,2459 13736,2481 13930,2481 14125,2481 14320,2481 14320,3007 14320,3534 14320,4061 14343,4084 14367,4106 14391,4129 14549,4129 14707,4129 14866,4129 14889,4106 14911,4084 14934,4061 14934,3534 14934,3007 14934,2481 15130,2481 15325,2481 15521,2481 15544,2459 15566,2437 15589,2416 15609,2256 15628,2097 15648,1938 15624,1914 15600,1890 15577,1866 14944,1866 14312,1866 13680,1866 13656,1890 13632,1914 13609,1938 Z M 13773,2394 C 13765,2387 13757,2379 13748,2372 13733,2238 13717,2103 13702,1969 13707,1964 13712,1958 13717,1953 14325,1953 14932,1953 15539,1953 15545,1958 15550,1964 15555,1969 15539,2103 15524,2238 15508,2372 15500,2379 15492,2387 15484,2394 15271,2394 15059,2394 14847,2394 14847,2937 14847,3480 14847,4024 14841,4030 14835,4036 14829,4042 14695,4042 14562,4042 14428,4042 14421,4036 14414,4030 14406,4024 14406,3480 14406,2937 14406,2394 14195,2394 13984,2394 13773,2394 Z"/>
        </g>
       </g>
       <g class="com.sun.star.drawing.ClosedBezierShape">
        <g id="id9">
         <rect class="BoundingBox" stroke="none" fill="none" x="15928" y="1866" width="2042" height="2265"/>
         <path fill="rgb(83,31,20)" stroke="none" d="M 15929,1938 C 15948,2097 15968,2256 15988,2416 16010,2437 16033,2459 16056,2481 16250,2481 16445,2481 16640,2481 16640,3007 16640,3534 16640,4061 16663,4084 16687,4106 16711,4129 16869,4129 17027,4129 17186,4129 17209,4106 17231,4084 17254,4061 17254,3534 17254,3007 17254,2481 17450,2481 17645,2481 17841,2481 17864,2459 17886,2437 17909,2416 17929,2256 17948,2097 17968,1938 17944,1914 17920,1890 17897,1866 17264,1866 16632,1866 16000,1866 15976,1890 15952,1914 15929,1938 Z M 16093,2394 C 16085,2387 16077,2379 16068,2372 16053,2238 16037,2103 16022,1969 16027,1964 16032,1958 16037,1953 16645,1953 17252,1953 17859,1953 17865,1958 17870,1964 17875,1969 17859,2103 17844,2238 17828,2372 17820,2379 17812,2387 17804,2394 17591,2394 17379,2394 17167,2394 17167,2937 17167,3480 17167,4024 17161,4030 17155,4036 17149,4042 17015,4042 16882,4042 16748,4042 16741,4036 16734,4030 16726,4024 16726,3480 16726,2937 16726,2394 16515,2394 16304,2394 16093,2394 Z"/>
        </g>
       </g>
       <g class="com.sun.star.drawing.ClosedBezierShape">
        <g id="id10">
         <rect class="BoundingBox" stroke="none" fill="none" x="18340" y="1866" width="1933" height="2261"/>
         <path fill="rgb(83,31,20)" stroke="none" d="M 18341,4058 C 18364,4080 18386,4103 18409,4126 19005,4126 19601,4126 20197,4126 20222,4102 20247,4078 20272,4055 20251,3916 20230,3777 20210,3639 20187,3617 20164,3595 20141,3573 19746,3573 19351,3573 18956,3573 18956,3474 18956,3375 18956,3275 19263,3275 19570,3275 19877,3275 19900,3254 19923,3232 19946,3210 19965,3072 19985,2933 20005,2794 19981,2771 19957,2747 19933,2723 19607,2723 19281,2723 18956,2723 18956,2622 18956,2520 18956,2419 19349,2419 19742,2419 20135,2419 20160,2397 20185,2375 20210,2354 20230,2215 20251,2076 20272,1938 20247,1914 20222,1890 20197,1866 19601,1866 19005,1866 18409,1866 18386,1889 18364,1912 18341,1935 18341,2642 18341,3350 18341,4058 Z M 20160,4039 C 19589,4039 19018,4039 18446,4039 18440,4033 18434,4027 18428,4020 18428,3338 18428,2655 18428,1972 18434,1966 18440,1959 18446,1953 19018,1953 19589,1953 20160,1953 20166,1958 20172,1964 20178,1969 20162,2082 20145,2196 20129,2310 20121,2317 20112,2325 20104,2332 19692,2332 19280,2332 18869,2332 18869,2491 18869,2651 18869,2810 19211,2810 19554,2810 19896,2810 19901,2815 19906,2820 19912,2825 19896,2939 19880,3053 19865,3167 19857,3174 19848,3181 19840,3189 19516,3189 19192,3189 18869,3189 18869,3346 18869,3503 18869,3660 19280,3660 19692,3660 20104,3660 20112,3668 20121,3675 20129,3682 20145,3796 20162,3910 20178,4024 20172,4029 20166,4034 20160,4039 Z"/>
        </g>
       </g>
      </g>
      <g class="Group">
       <g class="com.sun.star.drawing.ClosedBezierShape">
        <g id="id11">
         <rect class="BoundingBox" stroke="none" fill="none" x="1700" y="4590" width="1257" height="1334"/>
         <path fill="rgb(72,27,17)" stroke="none" d="M 1891,5923 C 2182,5923 2474,5923 2765,5923 2829,5860 2892,5796 2956,5733 2956,5651 2956,5569 2956,5487 2947,5478 2938,5469 2929,5460 2839,5460 2749,5460 2659,5460 2650,5469 2641,5478 2632,5487 2632,5515 2632,5544 2632,5572 2610,5594 2589,5616 2567,5637 2407,5637 2247,5637 2087,5637 2066,5616 2045,5595 2024,5574 2024,5362 2024,5150 2024,4938 2045,4917 2066,4897 2087,4876 2247,4876 2407,4876 2567,4876 2589,4897 2610,4919 2632,4940 2632,4969 2632,4998 2632,5026 2641,5035 2650,5044 2659,5053 2749,5053 2839,5053 2929,5053 2938,5044 2947,5035 2956,5026 2956,4944 2956,4862 2956,4780 2892,4717 2829,4653 2765,4590 2474,4590 2182,4590 1891,4590 1827,4653 1764,4717 1700,4780 1700,5098 1700,5415 1700,5733 1764,5796 1827,5860 1891,5923 Z"/>
        </g>
       </g>
       <g class="com.sun.star.drawing.ClosedBezierShape">
        <g id="id12">
         <rect class="BoundingBox" stroke="none" fill="none" x="3288" y="4570" width="1257" height="1373"/>
         <path fill="rgb(72,27,17)" stroke="none" d="M 3479,5942 C 3770,5942 4062,5942 4353,5942 4417,5879 4480,5815 4544,5752 4544,5421 4544,5091 4544,4761 4480,4697 4417,4634 4353,4570 4062,4570 3770,4570 3479,4570 3415,4634 3352,4697 3288,4761 3288,5091 3288,5421 3288,5752 3352,5815 3415,5879 3479,5942 Z M 3675,5656 C 3654,5635 3633,5614 3612,5593 3612,5369 3612,5144 3612,4919 3633,4898 3654,4877 3675,4856 3836,4856 3996,4856 4157,4856 4178,4877 4199,4898 4220,4919 4220,5144 4220,5368 4220,5593 4199,5614 4178,5635 4157,5656 3996,5656 3836,5656 3675,5656 Z"/>
        </g>
       </g>
       <g class="com.sun.star.drawing.ClosedBezierShape">
        <g id="id13">
         <rect class="BoundingBox" stroke="none" fill="none" x="4884" y="4590" width="1334" height="1335"/>
         <path fill="rgb(72,27,17)" stroke="none" d="M 4911,5923 C 5001,5923 5091,5923 5182,5923 5191,5914 5199,5905 5208,5896 5208,5630 5208,5364 5208,5098 5444,5366 5679,5634 5915,5902 5928,5909 5942,5916 5955,5923 6033,5923 6111,5923 6189,5923 6198,5914 6207,5905 6216,5896 6216,5470 6216,5043 6216,4617 6207,4608 6198,4599 6189,4590 6099,4590 6009,4590 5919,4590 5910,4599 5901,4608 5892,4617 5892,4883 5892,5149 5892,5415 5657,5147 5421,4879 5185,4611 5175,4604 5165,4597 5155,4590 5074,4590 4992,4590 4911,4590 4902,4599 4893,4608 4884,4617 4884,5043 4884,5470 4884,5896 4893,5905 4902,5914 4911,5923 Z"/>
        </g>
       </g>
       <g class="com.sun.star.drawing.ClosedBezierShape">
        <g id="id14">
         <rect class="BoundingBox" stroke="none" fill="none" x="6560" y="4589" width="1132" height="1335"/>
         <path fill="rgb(72,27,17)" stroke="none" d="M 6587,5923 C 6677,5923 6767,5923 6858,5923 6867,5914 6875,5905 6884,5896 6884,5731 6884,5565 6884,5400 7078,5400 7272,5400 7465,5400 7475,5391 7484,5382 7494,5373 7505,5296 7515,5220 7526,5143 7517,5134 7509,5125 7500,5116 7295,5116 7089,5116 6884,5116 6884,5036 6884,4956 6884,4876 7132,4876 7380,4876 7627,4876 7637,4867 7646,4858 7656,4849 7667,4772 7679,4694 7690,4617 7681,4608 7671,4599 7662,4590 7303,4590 6945,4590 6587,4590 6578,4599 6569,4608 6560,4617 6560,5043 6560,5470 6560,5896 6569,5905 6578,5914 6587,5923 Z"/>
        </g>
       </g>
       <g class="com.sun.star.drawing.ClosedBezierShape">
        <g id="id15">
         <rect class="BoundingBox" stroke="none" fill="none" x="8029" y="4590" width="326" height="1335"/>
         <path fill="rgb(72,27,17)" stroke="none" d="M 8056,5923 C 8146,5923 8236,5923 8327,5923 8336,5914 8344,5905 8353,5896 8353,5470 8353,5043 8353,4617 8344,4608 8336,4599 8327,4590 8236,4590 8146,4590 8056,4590 8047,4599 8038,4608 8029,4617 8029,5043 8029,5470 8029,5896 8038,5905 8047,5914 8056,5923 Z"/>
        </g>
       </g>
       <g class="com.sun.star.drawing.ClosedBezierShape">
        <g id="id16">
         <rect class="BoundingBox" stroke="none" fill="none" x="8694" y="4590" width="1257" height="1334"/>
         <path fill="rgb(72,27,17)" stroke="none" d="M 8885,5923 C 9176,5923 9468,5923 9759,5923 9823,5860 9886,5796 9950,5733 9950,5566 9950,5399 9950,5232 9941,5223 9932,5214 9923,5205 9743,5205 9564,5205 9384,5205 9375,5214 9365,5223 9355,5232 9345,5289 9334,5346 9323,5403 9332,5412 9341,5421 9350,5430 9442,5430 9534,5430 9626,5430 9626,5477 9626,5525 9626,5573 9604,5594 9583,5616 9561,5637 9401,5637 9241,5637 9081,5637 9060,5616 9039,5595 9018,5574 9018,5362 9018,5150 9018,4938 9039,4917 9060,4897 9081,4876 9241,4876 9401,4876 9561,4876 9583,4897 9604,4919 9626,4940 9626,4969 9626,4998 9626,5026 9635,5035 9644,5044 9653,5053 9743,5053 9833,5053 9923,5053 9932,5044 9941,5035 9950,5026 9950,4944 9950,4862 9950,4780 9886,4717 9823,4653 9759,4590 9468,4590 9176,4590 8885,4590 8821,4653 8758,4717 8694,4780 8694,5098 8694,5415 8694,5733 8758,5796 8821,5860 8885,5923 Z"/>
        </g>
       </g>
       <g class="com.sun.star.drawing.ClosedBezierShape">
        <g id="id17">
         <rect class="BoundingBox" stroke="none" fill="none" x="10294" y="4590" width="1257" height="1334"/>
         <path fill="rgb(72,27,17)" stroke="none" d="M 10485,5923 C 10776,5923 11068,5923 11359,5923 11423,5860 11486,5796 11550,5733 11550,5361 11550,4989 11550,4617 11541,4608 11532,4599 11523,4590 11433,4590 11343,4590 11253,4590 11244,4599 11235,4608 11226,4617 11226,4935 11226,5254 11226,5573 11204,5594 11183,5616 11161,5637 11002,5637 10842,5637 10683,5637 10661,5616 10640,5594 10618,5573 10618,5254 10618,4935 10618,4617 10609,4608 10601,4599 10592,4590 10501,4590 10411,4590 10321,4590 10312,4599 10303,4608 10294,4617 10294,4989 10294,5361 10294,5733 10358,5796 10421,5860 10485,5923 Z"/>
        </g>
       </g>
       <g class="com.sun.star.drawing.ClosedBezierShape">
        <g id="id18">
         <rect class="BoundingBox" stroke="none" fill="none" x="11890" y="4590" width="1257" height="1334"/>
         <path fill="rgb(72,27,17)" stroke="none" d="M 11917,5923 C 12007,5923 12097,5923 12188,5923 12197,5914 12205,5905 12214,5896 12214,5748 12214,5599 12214,5451 12393,5451 12572,5451 12752,5451 12775,5475 12798,5499 12822,5523 12822,5648 12822,5772 12822,5896 12831,5905 12840,5914 12849,5923 12939,5923 13029,5923 13119,5923 13128,5914 13137,5905 13146,5896 13146,5769 13146,5641 13146,5514 13084,5449 13021,5385 12959,5321 12959,5317 12959,5314 12959,5310 13021,5245 13084,5180 13146,5115 13146,5004 13146,4892 13146,4780 13082,4717 13019,4653 12955,4590 12609,4590 12263,4590 11917,4590 11908,4599 11899,4608 11890,4617 11890,4703 11890,4789 11890,4876 12180,4876 12470,4876 12759,4876 12780,4897 12801,4918 12822,4939 12822,4990 12822,5041 12822,5093 12799,5117 12776,5141 12753,5165 12466,5165 12178,5165 11890,5165 11890,5409 11890,5653 11890,5896 11899,5905 11908,5914 11917,5923 Z"/>
        </g>
       </g>
       <g class="com.sun.star.drawing.ClosedBezierShape">
        <g id="id19">
         <rect class="BoundingBox" stroke="none" fill="none" x="13490" y="4590" width="1257" height="1334"/>
         <path fill="rgb(72,27,17)" stroke="none" d="M 13517,5923 C 13607,5923 13697,5923 13788,5923 13797,5914 13805,5905 13814,5896 13814,5724 13814,5552 13814,5380 14017,5525 14219,5670 14422,5814 14422,5842 14422,5869 14422,5896 14431,5905 14440,5914 14449,5923 14539,5923 14629,5923 14719,5923 14728,5914 14737,5905 14746,5896 14746,5524 14746,5152 14746,4780 14682,4717 14619,4653 14555,4590 14264,4590 13972,4590 13681,4590 13617,4653 13554,4717 13490,4780 13490,5152 13490,5524 13490,5896 13499,5905 13508,5914 13517,5923 Z M 14422,5470 C 14219,5325 14017,5180 13814,5035 13814,5003 13814,4971 13814,4938 13836,4917 13857,4897 13879,4876 14039,4876 14199,4876 14359,4876 14380,4897 14401,4918 14422,4939 14422,5116 14422,5293 14422,5470 Z"/>
        </g>
       </g>
       <g class="com.sun.star.drawing.ClosedBezierShape">
        <g id="id20">
         <rect class="BoundingBox" stroke="none" fill="none" x="15029" y="4590" width="1196" height="1336"/>
         <path fill="rgb(72,27,17)" stroke="none" d="M 15492,5925 C 15582,5925 15671,5925 15761,5925 15770,5916 15779,5907 15787,5898 15787,5570 15787,5242 15787,4914 15913,4914 16038,4914 16163,4914 16172,4905 16182,4896 16191,4887 16202,4797 16213,4707 16224,4617 16215,4608 16206,4599 16197,4590 15817,4590 15436,4590 15056,4590 15047,4599 15038,4608 15029,4617 15040,4707 15051,4797 15062,4887 15071,4896 15081,4905 15090,4914 15215,4914 15339,4914 15464,4914 15464,5242 15464,5570 15464,5898 15473,5907 15483,5916 15492,5925 Z"/>
        </g>
       </g>
       <g class="com.sun.star.drawing.ClosedBezierShape">
        <g id="id21">
         <rect class="BoundingBox" stroke="none" fill="none" x="16508" y="4590" width="326" height="1335"/>
         <path fill="rgb(72,27,17)" stroke="none" d="M 16535,5923 C 16625,5923 16715,5923 16806,5923 16815,5914 16823,5905 16832,5896 16832,5470 16832,5043 16832,4617 16823,4608 16815,4599 16806,4590 16715,4590 16625,4590 16535,4590 16526,4599 16517,4608 16508,4617 16508,5043 16508,5470 16508,5896 16517,5905 16526,5914 16535,5923 Z"/>
        </g>
       </g>
       <g class="com.sun.star.drawing.ClosedBezierShape">
        <g id="id22">
         <rect class="BoundingBox" stroke="none" fill="none" x="17173" y="4570" width="1257" height="1373"/>
         <path fill="rgb(72,27,17)" stroke="none" d="M 17364,5942 C 17655,5942 17947,5942 18238,5942 18302,5879 18365,5815 18429,5752 18429,5421 18429,5091 18429,4761 18365,4697 18302,4634 18238,4570 17947,4570 17655,4570 17364,4570 17300,4634 17237,4697 17173,4761 17173,5091 17173,5421 17173,5752 17237,5815 17300,5879 17364,5942 Z M 17560,5656 C 17539,5635 17518,5614 17497,5593 17497,5369 17497,5144 17497,4919 17518,4898 17539,4877 17560,4856 17721,4856 17881,4856 18042,4856 18063,4877 18084,4898 18105,4919 18105,5144 18105,5368 18105,5593 18084,5614 18063,5635 18042,5656 17881,5656 17721,5656 17560,5656 Z"/>
        </g>
       </g>
       <g class="com.sun.star.drawing.ClosedBezierShape">
        <g id="id23">
         <rect class="BoundingBox" stroke="none" fill="none" x="18773" y="4590" width="1334" height="1335"/>
         <path fill="rgb(72,27,17)" stroke="none" d="M 18800,5923 C 18890,5923 18980,5923 19071,5923 19080,5914 19088,5905 19097,5896 19097,5630 19097,5364 19097,5098 19333,5366 19568,5634 19804,5902 19817,5909 19831,5916 19844,5923 19922,5923 20000,5923 20078,5923 20087,5914 20096,5905 20105,5896 20105,5470 20105,5043 20105,4617 20096,4608 20087,4599 20078,4590 19988,4590 19898,4590 19808,4590 19799,4599 19790,4608 19781,4617 19781,4883 19781,5149 19781,5415 19546,5147 19310,4879 19074,4611 19064,4604 19054,4597 19044,4590 18963,4590 18881,4590 18800,4590 18791,4599 18782,4608 18773,4617 18773,5043 18773,5470 18773,5896 18782,5905 18791,5914 18800,5923 Z"/>
        </g>
       </g>
       <g class="com.sun.star.drawing.ClosedBezierShape">
        <g id="id24">
         <rect class="BoundingBox" stroke="none" fill="none" x="1594" y="4484" width="1257" height="1335"/>
         <path fill="rgb(179,56,28)" stroke="none" d="M 1785,5817 C 2076,5817 2368,5817 2659,5817 2723,5754 2786,5690 2850,5627 2850,5545 2850,5463 2850,5381 2841,5372 2832,5363 2823,5354 2733,5354 2643,5354 2553,5354 2544,5363 2535,5372 2526,5381 2526,5409 2526,5438 2526,5466 2504,5488 2483,5510 2461,5531 2301,5531 2141,5531 1981,5531 1960,5510 1939,5489 1918,5468 1918,5256 1918,5044 1918,4832 1939,4811 1960,4791 1981,4770 2141,4770 2301,4770 2461,4770 2483,4791 2504,4813 2526,4834 2526,4863 2526,4892 2526,4920 2535,4929 2544,4938 2553,4947 2643,4947 2733,4947 2823,4947 2832,4938 2841,4929 2850,4920 2850,4838 2850,4756 2850,4674 2786,4611 2723,4547 2659,4484 2368,4484 2076,4484 1785,4484 1721,4547 1658,4611 1594,4674 1594,4992 1594,5309 1594,5627 1658,5690 1721,5754 1785,5817 Z"/>
        </g>
       </g>
       <g class="com.sun.star.drawing.ClosedBezierShape">
        <g id="id25">
         <rect class="BoundingBox" stroke="none" fill="none" x="3182" y="4464" width="1257" height="1373"/>
         <path fill="rgb(179,56,28)" stroke="none" d="M 3373,5836 C 3664,5836 3956,5836 4247,5836 4311,5773 4374,5709 4438,5646 4438,5315 4438,4985 4438,4655 4374,4591 4311,4528 4247,4464 3956,4464 3664,4464 3373,4464 3309,4528 3246,4591 3182,4655 3182,4985 3182,5315 3182,5646 3246,5709 3309,5773 3373,5836 Z M 3569,5550 C 3548,5529 3527,5508 3506,5487 3506,5263 3506,5038 3506,4813 3527,4792 3548,4771 3569,4750 3730,4750 3890,4750 4051,4750 4072,4771 4093,4792 4114,4813 4114,5038 4114,5262 4114,5487 4093,5508 4072,5529 4051,5550 3890,5550 3730,5550 3569,5550 Z"/>
        </g>
       </g>
       <g class="com.sun.star.drawing.ClosedBezierShape">
        <g id="id26">
         <rect class="BoundingBox" stroke="none" fill="none" x="4778" y="4484" width="1334" height="1335"/>
         <path fill="rgb(179,56,28)" stroke="none" d="M 4805,5817 C 4895,5817 4985,5817 5076,5817 5085,5808 5093,5799 5102,5790 5102,5524 5102,5258 5102,4992 5338,5260 5573,5528 5809,5796 5822,5803 5836,5810 5849,5817 5927,5817 6005,5817 6083,5817 6092,5808 6101,5799 6110,5790 6110,5364 6110,4937 6110,4511 6101,4502 6092,4493 6083,4484 5993,4484 5903,4484 5813,4484 5804,4493 5795,4502 5786,4511 5786,4777 5786,5043 5786,5309 5551,5041 5315,4773 5079,4505 5069,4498 5059,4491 5049,4484 4968,4484 4886,4484 4805,4484 4796,4493 4787,4502 4778,4511 4778,4937 4778,5364 4778,5790 4787,5799 4796,5808 4805,5817 Z"/>
        </g>
       </g>
       <g class="com.sun.star.drawing.ClosedBezierShape">
        <g id="id27">
         <rect class="BoundingBox" stroke="none" fill="none" x="6454" y="4484" width="1132" height="1334"/>
         <path fill="rgb(179,56,28)" stroke="none" d="M 6481,5817 C 6571,5817 6661,5817 6752,5817 6761,5808 6769,5799 6778,5790 6778,5625 6778,5459 6778,5294 6972,5294 7166,5294 7359,5294 7369,5285 7378,5276 7388,5267 7399,5190 7409,5114 7420,5037 7411,5028 7403,5019 7394,5010 7189,5010 6983,5010 6778,5010 6778,4930 6778,4850 6778,4770 7026,4770 7274,4770 7521,4770 7531,4761 7540,4752 7550,4743 7561,4666 7573,4588 7584,4511 7575,4502 7565,4493 7556,4484 7197,4484 6839,4484 6481,4484 6472,4493 6463,4502 6454,4511 6454,4937 6454,5364 6454,5790 6463,5799 6472,5808 6481,5817 Z"/>
        </g>
       </g>
       <g class="com.sun.star.drawing.ClosedBezierShape">
        <g id="id28">
         <rect class="BoundingBox" stroke="none" fill="none" x="7923" y="4484" width="326" height="1335"/>
         <path fill="rgb(179,56,28)" stroke="none" d="M 7950,5817 C 8040,5817 8130,5817 8221,5817 8230,5808 8238,5799 8247,5790 8247,5364 8247,4937 8247,4511 8238,4502 8230,4493 8221,4484 8130,4484 8040,4484 7950,4484 7941,4493 7932,4502 7923,4511 7923,4937 7923,5364 7923,5790 7932,5799 7941,5808 7950,5817 Z"/>
        </g>
       </g>
       <g class="com.sun.star.drawing.ClosedBezierShape">
        <g id="id29">
         <rect class="BoundingBox" stroke="none" fill="none" x="8588" y="4484" width="1257" height="1335"/>
         <path fill="rgb(179,56,28)" stroke="none" d="M 8779,5817 C 9070,5817 9362,5817 9653,5817 9717,5754 9780,5690 9844,5627 9844,5460 9844,5293 9844,5126 9835,5117 9826,5108 9817,5099 9637,5099 9458,5099 9278,5099 9269,5108 9259,5117 9249,5126 9239,5183 9228,5240 9217,5297 9226,5306 9235,5315 9244,5324 9336,5324 9428,5324 9520,5324 9520,5371 9520,5419 9520,5467 9498,5488 9477,5510 9455,5531 9295,5531 9135,5531 8975,5531 8954,5510 8933,5489 8912,5468 8912,5256 8912,5044 8912,4832 8933,4811 8954,4791 8975,4770 9135,4770 9295,4770 9455,4770 9477,4791 9498,4813 9520,4834 9520,4863 9520,4892 9520,4920 9529,4929 9538,4938 9547,4947 9637,4947 9727,4947 9817,4947 9826,4938 9835,4929 9844,4920 9844,4838 9844,4756 9844,4674 9780,4611 9717,4547 9653,4484 9362,4484 9070,4484 8779,4484 8715,4547 8652,4611 8588,4674 8588,4992 8588,5309 8588,5627 8652,5690 8715,5754 8779,5817 Z"/>
        </g>
       </g>
       <g class="com.sun.star.drawing.ClosedBezierShape">
        <g id="id30">
         <rect class="BoundingBox" stroke="none" fill="none" x="10188" y="4484" width="1257" height="1335"/>
         <path fill="rgb(179,56,28)" stroke="none" d="M 10379,5817 C 10670,5817 10962,5817 11253,5817 11317,5754 11380,5690 11444,5627 11444,5255 11444,4883 11444,4511 11435,4502 11426,4493 11417,4484 11327,4484 11237,4484 11147,4484 11138,4493 11129,4502 11120,4511 11120,4829 11120,5148 11120,5467 11098,5488 11077,5510 11055,5531 10896,5531 10736,5531 10577,5531 10555,5510 10534,5488 10512,5467 10512,5148 10512,4829 10512,4511 10503,4502 10495,4493 10486,4484 10395,4484 10305,4484 10215,4484 10206,4493 10197,4502 10188,4511 10188,4883 10188,5255 10188,5627 10252,5690 10315,5754 10379,5817 Z"/>
        </g>
       </g>
       <g class="com.sun.star.drawing.ClosedBezierShape">
        <g id="id31">
         <rect class="BoundingBox" stroke="none" fill="none" x="11784" y="4484" width="1257" height="1335"/>
         <path fill="rgb(179,56,28)" stroke="none" d="M 11811,5817 C 11901,5817 11991,5817 12082,5817 12091,5808 12099,5799 12108,5790 12108,5642 12108,5493 12108,5345 12287,5345 12466,5345 12646,5345 12669,5369 12692,5393 12716,5417 12716,5542 12716,5666 12716,5790 12725,5799 12734,5808 12743,5817 12833,5817 12923,5817 13013,5817 13022,5808 13031,5799 13040,5790 13040,5663 13040,5535 13040,5408 12978,5343 12915,5279 12853,5215 12853,5211 12853,5208 12853,5204 12915,5139 12978,5074 13040,5009 13040,4898 13040,4786 13040,4674 12976,4611 12913,4547 12849,4484 12503,4484 12157,4484 11811,4484 11802,4493 11793,4502 11784,4511 11784,4597 11784,4683 11784,4770 12074,4770 12364,4770 12653,4770 12674,4791 12695,4812 12716,4833 12716,4884 12716,4935 12716,4987 12693,5011 12670,5035 12647,5059 12360,5059 12072,5059 11784,5059 11784,5303 11784,5547 11784,5790 11793,5799 11802,5808 11811,5817 Z"/>
        </g>
       </g>
       <g class="com.sun.star.drawing.ClosedBezierShape">
        <g id="id32">
         <rect class="BoundingBox" stroke="none" fill="none" x="13384" y="4484" width="1257" height="1335"/>
         <path fill="rgb(179,56,28)" stroke="none" d="M 13411,5817 C 13501,5817 13591,5817 13682,5817 13691,5808 13699,5799 13708,5790 13708,5618 13708,5446 13708,5274 13911,5419 14113,5564 14316,5708 14316,5736 14316,5763 14316,5790 14325,5799 14334,5808 14343,5817 14433,5817 14523,5817 14613,5817 14622,5808 14631,5799 14640,5790 14640,5418 14640,5046 14640,4674 14576,4611 14513,4547 14449,4484 14158,4484 13866,4484 13575,4484 13511,4547 13448,4611 13384,4674 13384,5046 13384,5418 13384,5790 13393,5799 13402,5808 13411,5817 Z M 14316,5364 C 14113,5219 13911,5074 13708,4929 13708,4897 13708,4865 13708,4832 13730,4811 13751,4791 13773,4770 13933,4770 14093,4770 14253,4770 14274,4791 14295,4812 14316,4833 14316,5010 14316,5187 14316,5364 Z"/>
        </g>
       </g>
       <g class="com.sun.star.drawing.ClosedBezierShape">
        <g id="id33">
         <rect class="BoundingBox" stroke="none" fill="none" x="14923" y="4484" width="1196" height="1336"/>
         <path fill="rgb(179,56,28)" stroke="none" d="M 15386,5819 C 15476,5819 15565,5819 15655,5819 15664,5810 15673,5801 15681,5792 15681,5464 15681,5136 15681,4808 15807,4808 15932,4808 16057,4808 16066,4799 16076,4790 16085,4781 16096,4691 16107,4601 16118,4511 16109,4502 16100,4493 16091,4484 15711,4484 15330,4484 14950,4484 14941,4493 14932,4502 14923,4511 14934,4601 14945,4691 14956,4781 14965,4790 14975,4799 14984,4808 15109,4808 15233,4808 15358,4808 15358,5136 15358,5464 15358,5792 15367,5801 15377,5810 15386,5819 Z"/>
        </g>
       </g>
       <g class="com.sun.star.drawing.ClosedBezierShape">
        <g id="id34">
         <rect class="BoundingBox" stroke="none" fill="none" x="16402" y="4484" width="326" height="1335"/>
         <path fill="rgb(179,56,28)" stroke="none" d="M 16429,5817 C 16519,5817 16609,5817 16700,5817 16709,5808 16717,5799 16726,5790 16726,5364 16726,4937 16726,4511 16717,4502 16709,4493 16700,4484 16609,4484 16519,4484 16429,4484 16420,4493 16411,4502 16402,4511 16402,4937 16402,5364 16402,5790 16411,5799 16420,5808 16429,5817 Z"/>
        </g>
       </g>
       <g class="com.sun.star.drawing.ClosedBezierShape">
        <g id="id35">
         <rect class="BoundingBox" stroke="none" fill="none" x="17067" y="4464" width="1257" height="1373"/>
         <path fill="rgb(179,56,28)" stroke="none" d="M 17258,5836 C 17549,5836 17841,5836 18132,5836 18196,5773 18259,5709 18323,5646 18323,5315 18323,4985 18323,4655 18259,4591 18196,4528 18132,4464 17841,4464 17549,4464 17258,4464 17194,4528 17131,4591 17067,4655 17067,4985 17067,5315 17067,5646 17131,5709 17194,5773 17258,5836 Z M 17454,5550 C 17433,5529 17412,5508 17391,5487 17391,5263 17391,5038 17391,4813 17412,4792 17433,4771 17454,4750 17615,4750 17775,4750 17936,4750 17957,4771 17978,4792 17999,4813 17999,5038 17999,5262 17999,5487 17978,5508 17957,5529 17936,5550 17775,5550 17615,5550 17454,5550 Z"/>
        </g>
       </g>
       <g class="com.sun.star.drawing.ClosedBezierShape">
        <g id="id36">
         <rect class="BoundingBox" stroke="none" fill="none" x="18667" y="4484" width="1334" height="1335"/>
         <path fill="rgb(179,56,28)" stroke="none" d="M 18694,5817 C 18784,5817 18874,5817 18965,5817 18974,5808 18982,5799 18991,5790 18991,5524 18991,5258 18991,4992 19227,5260 19462,5528 19698,5796 19711,5803 19725,5810 19738,5817 19816,5817 19894,5817 19972,5817 19981,5808 19990,5799 19999,5790 19999,5364 19999,4937 19999,4511 19990,4502 19981,4493 19972,4484 19882,4484 19792,4484 19702,4484 19693,4493 19684,4502 19675,4511 19675,4777 19675,5043 19675,5309 19440,5041 19204,4773 18968,4505 18958,4498 18948,4491 18938,4484 18857,4484 18775,4484 18694,4484 18685,4493 18676,4502 18667,4511 18667,4937 18667,5364 18667,5790 18676,5799 18685,5808 18694,5817 Z"/>
        </g>
       </g>
      </g>
     </g>
    </g>
   </g>
  </g>
 </g>
</svg>