<?xml version="1.0" encoding="UTF-8"?>
<!DOCTYPE svg PUBLIC "-//W3C//DTD SVG 1.1//EN" "http://www.w3.org/Graphics/SVG/1.1/DTD/svg11.dtd">
<svg version="1.2" width="215.9mm" height="76.2mm" viewBox="0 0 21590 7620" preserveAspectRatio="xMidYMid" fill-rule="evenodd" stroke-width="28.222" stroke-linejoin="round" xmlns="http://www.w3.org/2000/svg" xmlns:ooo="http://xml.openoffice.org/svg/export" xmlns:xlink="http://www.w3.org/1999/xlink" xmlns:presentation="http://sun.com/xmlns/staroffice/presentation" xmlns:smil="http://www.w3.org/2001/SMIL20/" xmlns:anim="urn:oasis:names:tc:opendocument:xmlns:animation:1.0" xmlns:svg="urn:oasis:names:tc:opendocument:xmlns:svg-compatible:1.0" xml:space="preserve">
 <defs class="ClipPathGroup">
  <clipPath id="presentation_clip_path" clipPathUnits="userSpaceOnUse">
   <rect x="0" y="0" width="21590" height="7620"/>
  </clipPath>
  <clipPath id="presentation_clip_path_shrink" clipPathUnits="userSpaceOnUse">
   <rect x="21" y="7" width="21547" height="7605"/>
  </clipPath>
 </defs>
 <defs class="TextShapeIndex">
  <g ooo:slide="id1" ooo:id-list="id3 id4 id5 id6 id7 id8 id9 id10 id11 id12 id13 id14 id15 id16 id17 id18"/>
 </defs>
 <defs class="EmbeddedBulletChars">
  <g id="bullet-char-template-57356" transform="scale(0.00048828125,-0.00048828125)">
   <path d="M 580,1141 L 1163,571 580,0 -4,571 580,1141 Z"/>
  </g>
  <g id="bullet-char-template-57354" transform="scale(0.00048828125,-0.00048828125)">
   <path d="M 8,1128 L 1137,1128 1137,0 8,0 8,1128 Z"/>
  </g>
  <g id="bullet-char-template-10146" transform="scale(0.00048828125,-0.00048828125)">
   <path d="M 174,0 L 602,739 174,1481 1456,739 174,0 Z M 1358,739 L 309,1346 659,739 1358,739 Z"/>
  </g>
  <g id="bullet-char-template-10132" transform="scale(0.00048828125,-0.00048828125)">
   <path d="M 2015,739 L 1276,0 717,0 1260,543 174,543 174,936 1260,936 717,1481 1274,1481 2015,739 Z"/>
  </g>
  <g id="bullet-char-template-10007" transform="scale(0.00048828125,-0.00048828125)">
   <path d="M 0,-2 C -7,14 -16,27 -25,37 L 356,567 C 262,823 215,952 215,954 215,979 228,992 255,992 264,992 276,990 289,987 310,991 331,999 354,1012 L 381,999 492,748 772,1049 836,1024 860,1049 C 881,1039 901,1025 922,1006 886,937 835,863 770,784 769,783 710,716 594,584 L 774,223 C 774,196 753,168 711,139 L 727,119 C 717,90 699,76 672,76 641,76 570,178 457,381 L 164,-76 C 142,-110 111,-127 72,-127 30,-127 9,-110 8,-76 1,-67 -2,-52 -2,-32 -2,-23 -1,-13 0,-2 Z"/>
  </g>
  <g id="bullet-char-template-10004" transform="scale(0.00048828125,-0.00048828125)">
   <path d="M 285,-33 C 182,-33 111,30 74,156 52,228 41,333 41,471 41,549 55,616 82,672 116,743 169,778 240,778 293,778 328,747 346,684 L 369,508 C 377,444 397,411 428,410 L 1163,1116 C 1174,1127 1196,1133 1229,1133 1271,1133 1292,1118 1292,1087 L 1292,965 C 1292,929 1282,901 1262,881 L 442,47 C 390,-6 338,-33 285,-33 Z"/>
  </g>
  <g id="bullet-char-template-9679" transform="scale(0.00048828125,-0.00048828125)">
   <path d="M 813,0 C 632,0 489,54 383,161 276,268 223,411 223,592 223,773 276,916 383,1023 489,1130 632,1184 813,1184 992,1184 1136,1130 1245,1023 1353,916 1407,772 1407,592 1407,412 1353,268 1245,161 1136,54 992,0 813,0 Z"/>
  </g>
  <g id="bullet-char-template-8226" transform="scale(0.00048828125,-0.00048828125)">
   <path d="M 346,457 C 273,457 209,483 155,535 101,586 74,649 74,723 74,796 101,859 155,911 209,963 273,989 346,989 419,989 480,963 531,910 582,859 608,796 608,723 608,648 583,586 532,535 482,483 420,457 346,457 Z"/>
  </g>
  <g id="bullet-char-template-8211" transform="scale(0.00048828125,-0.00048828125)">
   <path d="M -4,459 L 1135,459 1135,606 -4,606 -4,459 Z"/>
  </g>
  <g id="bullet-char-template-61548" transform="scale(0.00048828125,-0.00048828125)">
   <path d="M 173,740 C 173,903 231,1043 346,1159 462,1274 601,1332 765,1332 928,1332 1067,1274 1183,1159 1299,1043 1357,903 1357,740 1357,577 1299,437 1183,322 1067,206 928,148 765,148 601,148 462,206 346,322 231,437 173,577 173,740 Z"/>
  </g>
 </defs>
 <g>
  <g id="id2" class="Master_Slide">
   <g id="bg-id2" class="Background"/>
   <g id="bo-id2" class="BackgroundObjects"/>
  </g>
 </g>
 <g class="SlideGroup">
  <g>
   <g id="container-id1">
    <g id="id1" class="Slide" clip-path="url(#presentation_clip_path)">
     <g class="Page">
      <g class="Group">
       <g class="com.sun.star.drawing.ClosedBezierShape">
        <g id="id3">
         <rect class="BoundingBox" stroke="none" fill="none" x="1477" y="2788" width="2047" height="2174"/>
         <path fill="rgb(72,27,17)" stroke="none" d="M 1788,4961 C 2263,4961 2738,4961 3213,4961 3316,4858 3419,4754 3523,4651 3523,4517 3523,4384 3523,4250 3508,4236 3494,4221 3479,4207 3333,4207 3186,4207 3039,4207 3024,4221 3010,4236 2995,4250 2995,4297 2995,4343 2995,4390 2960,4425 2925,4460 2890,4495 2629,4495 2368,4495 2107,4495 2073,4461 2039,4427 2005,4393 2005,4047 2005,3702 2005,3356 2039,3322 2073,3288 2107,3254 2368,3254 2629,3254 2890,3254 2925,3289 2960,3324 2995,3359 2995,3406 2995,3452 2995,3499 3010,3514 3024,3528 3039,3542 3186,3542 3333,3542 3479,3542 3494,3528 3508,3514 3523,3499 3523,3366 3523,3232 3523,3099 3419,2995 3316,2892 3213,2788 2738,2788 2263,2788 1788,2788 1684,2892 1581,2995 1477,3099 1477,3616 1477,4133 1477,4651 1581,4754 1684,4858 1788,4961 Z"/>
        </g>
       </g>
       <g class="com.sun.star.drawing.ClosedBezierShape">
        <g id="id4">
         <rect class="BoundingBox" stroke="none" fill="none" x="4064" y="2788" width="2047" height="2174"/>
         <path fill="rgb(72,27,17)" stroke="none" d="M 4108,4961 C 4255,4961 4402,4961 4549,4961 4563,4947 4578,4932 4592,4918 4592,4637 4592,4357 4592,4076 4922,4312 5252,4548 5582,4784 5582,4829 5582,4873 5582,4918 5597,4932 5611,4947 5626,4961 5773,4961 5920,4961 6066,4961 6081,4947 6095,4932 6110,4918 6110,4311 6110,3705 6110,3099 6006,2995 5903,2892 5800,2788 5325,2788 4850,2788 4375,2788 4271,2892 4168,2995 4064,3099 4064,3705 4064,4311 4064,4918 4079,4932 4093,4947 4108,4961 Z M 5582,4222 C 5252,3986 4922,3750 4592,3515 4592,3462 4592,3409 4592,3356 4627,3322 4662,3288 4698,3254 4958,3254 5219,3254 5480,3254 5514,3288 5548,3322 5582,3356 5582,3645 5582,3934 5582,4222 Z"/>
        </g>
       </g>
       <g class="com.sun.star.drawing.ClosedBezierShape">
        <g id="id5">
         <rect class="BoundingBox" stroke="none" fill="none" x="6667" y="2788" width="1843" height="2174"/>
         <path fill="rgb(72,27,17)" stroke="none" d="M 6711,4961 C 7206,4961 7702,4961 8198,4961 8301,4858 8405,4754 8508,4651 8508,4492 8508,4334 8508,4176 8131,3928 7755,3681 7378,3434 7378,3408 7378,3382 7378,3356 7413,3322 7449,3288 7484,3254 7792,3254 8100,3254 8409,3254 8424,3239 8440,3225 8455,3210 8473,3084 8490,2958 8508,2832 8494,2817 8479,2803 8465,2788 7969,2788 7473,2788 6978,2788 6874,2892 6771,2995 6667,3099 6667,3267 6667,3436 6667,3605 7022,3836 7377,4068 7732,4300 7732,4331 7732,4362 7732,4393 7697,4427 7662,4461 7627,4495 7340,4495 7053,4495 6767,4495 6751,4510 6736,4524 6720,4539 6703,4665 6685,4791 6667,4918 6682,4932 6696,4947 6711,4961 Z"/>
        </g>
       </g>
       <g class="com.sun.star.drawing.ClosedBezierShape">
        <g id="id6">
         <rect class="BoundingBox" stroke="none" fill="none" x="9063" y="2788" width="1843" height="2174"/>
         <path fill="rgb(72,27,17)" stroke="none" d="M 9107,4961 C 9602,4961 10098,4961 10594,4961 10697,4858 10801,4754 10904,4651 10904,4492 10904,4334 10904,4176 10527,3928 10151,3681 9774,3434 9774,3408 9774,3382 9774,3356 9809,3322 9845,3288 9880,3254 10188,3254 10496,3254 10805,3254 10820,3239 10836,3225 10851,3210 10869,3084 10886,2958 10904,2832 10890,2817 10875,2803 10861,2788 10365,2788 9869,2788 9374,2788 9270,2892 9167,2995 9063,3099 9063,3267 9063,3436 9063,3605 9418,3836 9773,4068 10128,4300 10128,4331 10128,4362 10128,4393 10093,4427 10058,4461 10023,4495 9736,4495 9449,4495 9163,4495 9147,4510 9132,4524 9116,4539 9099,4665 9081,4791 9063,4918 9078,4932 9092,4947 9107,4961 Z"/>
        </g>
       </g>
       <g class="com.sun.star.drawing.ClosedBezierShape">
        <g id="id7">
         <rect class="BoundingBox" stroke="none" fill="none" x="11463" y="2788" width="1843" height="2174"/>
         <path fill="rgb(72,27,17)" stroke="none" d="M 11507,4961 C 12090,4961 12674,4961 13257,4961 13273,4947 13289,4932 13304,4918 13285,4791 13267,4665 13248,4539 13233,4524 13217,4510 13202,4495 12798,4495 12395,4495 11991,4495 11991,4367 11991,4239 11991,4111 12307,4111 12622,4111 12938,4111 12953,4096 12969,4082 12984,4067 13002,3941 13020,3815 13037,3688 13023,3674 13008,3659 12994,3645 12659,3645 12325,3645 11991,3645 11991,3515 11991,3384 11991,3254 12394,3254 12796,3254 13199,3254 13215,3239 13232,3225 13248,3210 13267,3084 13285,2958 13304,2832 13289,2817 13273,2803 13257,2788 12674,2788 12090,2788 11507,2788 11492,2803 11478,2817 11463,2832 11463,3527 11463,4222 11463,4918 11478,4932 11492,4947 11507,4961 Z"/>
        </g>
       </g>
       <g class="com.sun.star.drawing.ClosedBezierShape">
        <g id="id8">
         <rect class="BoundingBox" stroke="none" fill="none" x="13766" y="2788" width="1948" height="2178"/>
         <path fill="rgb(72,27,17)" stroke="none" d="M 14521,4964 C 14666,4964 14812,4964 14958,4964 14973,4950 14987,4935 15002,4921 15002,4386 15002,3851 15002,3316 15205,3316 15409,3316 15613,3316 15629,3301 15644,3287 15660,3272 15677,3126 15695,2979 15712,2832 15698,2817 15683,2803 15669,2788 15049,2788 14429,2788 13810,2788 13795,2803 13781,2817 13766,2832 13784,2979 13801,3126 13819,3272 13835,3287 13850,3301 13866,3316 14068,3316 14271,3316 14474,3316 14474,3851 14474,4386 14474,4921 14489,4935 14505,4950 14521,4964 Z"/>
        </g>
       </g>
       <g class="com.sun.star.drawing.ClosedBezierShape">
        <g id="id9">
         <rect class="BoundingBox" stroke="none" fill="none" x="16086" y="2788" width="1948" height="2178"/>
         <path fill="rgb(72,27,17)" stroke="none" d="M 16841,4964 C 16986,4964 17132,4964 17278,4964 17293,4950 17307,4935 17322,4921 17322,4386 17322,3851 17322,3316 17525,3316 17729,3316 17933,3316 17949,3301 17964,3287 17980,3272 17997,3126 18015,2979 18032,2832 18018,2817 18003,2803 17989,2788 17369,2788 16749,2788 16130,2788 16115,2803 16101,2817 16086,2832 16104,2979 16121,3126 16139,3272 16155,3287 16170,3301 16186,3316 16388,3316 16591,3316 16794,3316 16794,3851 16794,4386 16794,4921 16809,4935 16825,4950 16841,4964 Z"/>
        </g>
       </g>
       <g class="com.sun.star.drawing.ClosedBezierShape">
        <g id="id10">
         <rect class="BoundingBox" stroke="none" fill="none" x="18495" y="2788" width="1843" height="2174"/>
         <path fill="rgb(72,27,17)" stroke="none" d="M 18539,4961 C 19122,4961 19706,4961 20289,4961 20305,4947 20321,4932 20336,4918 20317,4791 20299,4665 20280,4539 20265,4524 20249,4510 20234,4495 19830,4495 19427,4495 19023,4495 19023,4367 19023,4239 19023,4111 19339,4111 19654,4111 19970,4111 19985,4096 20001,4082 20016,4067 20034,3941 20052,3815 20069,3688 20055,3674 20040,3659 20026,3645 19691,3645 19357,3645 19023,3645 19023,3515 19023,3384 19023,3254 19426,3254 19828,3254 20231,3254 20247,3239 20264,3225 20280,3210 20299,3084 20317,2958 20336,2832 20321,2817 20305,2803 20289,2788 19706,2788 19122,2788 18539,2788 18524,2803 18510,2817 18495,2832 18495,3527 18495,4222 18495,4918 18510,4932 18524,4947 18539,4961 Z"/>
        </g>
       </g>
       <g class="com.sun.star.drawing.ClosedBezierShape">
        <g id="id11">
         <rect class="BoundingBox" stroke="none" fill="none" x="1265" y="2576" width="2047" height="2174"/>
         <path fill="rgb(179,56,28)" stroke="none" d="M 1576,4749 C 2051,4749 2526,4749 3001,4749 3104,4646 3207,4542 3311,4439 3311,4305 3311,4172 3311,4038 3296,4024 3282,4009 3267,3995 3121,3995 2974,3995 2827,3995 2812,4009 2798,4024 2783,4038 2783,4085 2783,4131 2783,4178 2748,4213 2713,4248 2678,4283 2417,4283 2156,4283 1895,4283 1861,4249 1827,4215 1793,4181 1793,3835 1793,3490 1793,3144 1827,3110 1861,3076 1895,3042 2156,3042 2417,3042 2678,3042 2713,3077 2748,3112 2783,3147 2783,3194 2783,3240 2783,3287 2798,3302 2812,3316 2827,3330 2974,3330 3121,3330 3267,3330 3282,3316 3296,3302 3311,3287 3311,3154 3311,3020 3311,2887 3207,2783 3104,2680 3001,2576 2526,2576 2051,2576 1576,2576 1472,2680 1369,2783 1265,2887 1265,3404 1265,3921 1265,4439 1369,4542 1472,4646 1576,4749 Z"/>
        </g>
       </g>
       <g class="com.sun.star.drawing.ClosedBezierShape">
        <g id="id12">
         <rect class="BoundingBox" stroke="none" fill="none" x="3852" y="2576" width="2047" height="2174"/>
         <path fill="rgb(179,56,28)" stroke="none" d="M 3896,4749 C 4043,4749 4190,4749 4337,4749 4351,4735 4366,4720 4380,4706 4380,4425 4380,4145 4380,3864 4710,4100 5040,4336 5370,4572 5370,4617 5370,4661 5370,4706 5385,4720 5399,4735 5414,4749 5561,4749 5708,4749 5854,4749 5869,4735 5883,4720 5898,4706 5898,4099 5898,3493 5898,2887 5794,2783 5691,2680 5588,2576 5113,2576 4638,2576 4163,2576 4059,2680 3956,2783 3852,2887 3852,3493 3852,4099 3852,4706 3867,4720 3881,4735 3896,4749 Z M 5370,4010 C 5040,3774 4710,3538 4380,3303 4380,3250 4380,3197 4380,3144 4415,3110 4450,3076 4486,3042 4746,3042 5007,3042 5268,3042 5302,3076 5336,3110 5370,3144 5370,3433 5370,3722 5370,4010 Z"/>
        </g>
       </g>
       <g class="com.sun.star.drawing.ClosedBezierShape">
        <g id="id13">
         <rect class="BoundingBox" stroke="none" fill="none" x="6455" y="2576" width="1843" height="2174"/>
         <path fill="rgb(179,56,28)" stroke="none" d="M 6499,4749 C 6994,4749 7490,4749 7986,4749 8089,4646 8193,4542 8296,4439 8296,4280 8296,4122 8296,3964 7919,3716 7543,3469 7166,3222 7166,3196 7166,3170 7166,3144 7201,3110 7237,3076 7272,3042 7580,3042 7888,3042 8197,3042 8212,3027 8228,3013 8243,2998 8261,2872 8278,2746 8296,2620 8282,2605 8267,2591 8253,2576 7757,2576 7261,2576 6766,2576 6662,2680 6559,2783 6455,2887 6455,3055 6455,3224 6455,3393 6810,3624 7165,3856 7520,4088 7520,4119 7520,4150 7520,4181 7485,4215 7450,4249 7415,4283 7128,4283 6841,4283 6555,4283 6539,4298 6524,4312 6508,4327 6491,4453 6473,4579 6455,4706 6470,4720 6484,4735 6499,4749 Z"/>
        </g>
       </g>
       <g class="com.sun.star.drawing.ClosedBezierShape">
        <g id="id14">
         <rect class="BoundingBox" stroke="none" fill="none" x="8851" y="2576" width="1843" height="2174"/>
         <path fill="rgb(179,56,28)" stroke="none" d="M 8895,4749 C 9390,4749 9886,4749 10382,4749 10485,4646 10589,4542 10692,4439 10692,4280 10692,4122 10692,3964 10315,3716 9939,3469 9562,3222 9562,3196 9562,3170 9562,3144 9597,3110 9633,3076 9668,3042 9976,3042 10284,3042 10593,3042 10608,3027 10624,3013 10639,2998 10657,2872 10674,2746 10692,2620 10678,2605 10663,2591 10649,2576 10153,2576 9657,2576 9162,2576 9058,2680 8955,2783 8851,2887 8851,3055 8851,3224 8851,3393 9206,3624 9561,3856 9916,4088 9916,4119 9916,4150 9916,4181 9881,4215 9846,4249 9811,4283 9524,4283 9237,4283 8951,4283 8935,4298 8920,4312 8904,4327 8887,4453 8869,4579 8851,4706 8866,4720 8880,4735 8895,4749 Z"/>
        </g>
       </g>
       <g class="com.sun.star.drawing.ClosedBezierShape">
        <g id="id15">
         <rect class="BoundingBox" stroke="none" fill="none" x="11251" y="2576" width="1843" height="2174"/>
         <path fill="rgb(179,56,28)" stroke="none" d="M 11295,4749 C 11878,4749 12462,4749 13045,4749 13061,4735 13077,4720 13092,4706 13073,4579 13055,4453 13036,4327 13021,4312 13005,4298 12990,4283 12586,4283 12183,4283 11779,4283 11779,4155 11779,4027 11779,3899 12095,3899 12410,3899 12726,3899 12741,3884 12757,3870 12772,3855 12790,3729 12808,3603 12825,3476 12811,3462 12796,3447 12782,3433 12447,3433 12113,3433 11779,3433 11779,3303 11779,3172 11779,3042 12182,3042 12584,3042 12987,3042 13003,3027 13020,3013 13036,2998 13055,2872 13073,2746 13092,2620 13077,2605 13061,2591 13045,2576 12462,2576 11878,2576 11295,2576 11280,2591 11266,2605 11251,2620 11251,3315 11251,4010 11251,4706 11266,4720 11280,4735 11295,4749 Z"/>
        </g>
       </g>
       <g class="com.sun.star.drawing.ClosedBezierShape">
        <g id="id16">
         <rect class="BoundingBox" stroke="none" fill="none" x="13554" y="2576" width="1948" height="2178"/>
         <path fill="rgb(179,56,28)" stroke="none" d="M 14309,4752 C 14454,4752 14600,4752 14746,4752 14761,4738 14775,4723 14790,4709 14790,4174 14790,3639 14790,3104 14993,3104 15197,3104 15401,3104 15417,3089 15432,3075 15448,3060 15465,2914 15483,2767 15500,2620 15486,2605 15471,2591 15457,2576 14837,2576 14217,2576 13598,2576 13583,2591 13569,2605 13554,2620 13572,2767 13589,2914 13607,3060 13623,3075 13638,3089 13654,3104 13856,3104 14059,3104 14262,3104 14262,3639 14262,4174 14262,4709 14277,4723 14293,4738 14309,4752 Z"/>
        </g>
       </g>
       <g class="com.sun.star.drawing.ClosedBezierShape">
        <g id="id17">
         <rect class="BoundingBox" stroke="none" fill="none" x="15874" y="2576" width="1948" height="2178"/>
         <path fill="rgb(179,56,28)" stroke="none" d="M 16629,4752 C 16774,4752 16920,4752 17066,4752 17081,4738 17095,4723 17110,4709 17110,4174 17110,3639 17110,3104 17313,3104 17517,3104 17721,3104 17737,3089 17752,3075 17768,3060 17785,2914 17803,2767 17820,2620 17806,2605 17791,2591 17777,2576 17157,2576 16537,2576 15918,2576 15903,2591 15889,2605 15874,2620 15892,2767 15909,2914 15927,3060 15943,3075 15958,3089 15974,3104 16176,3104 16379,3104 16582,3104 16582,3639 16582,4174 16582,4709 16597,4723 16613,4738 16629,4752 Z"/>
        </g>
       </g>
       <g class="com.sun.star.drawing.ClosedBezierShape">
        <g id="id18">
         <rect class="BoundingBox" stroke="none" fill="none" x="18283" y="2576" width="1843" height="2174"/>
         <path fill="rgb(179,56,28)" stroke="none" d="M 18327,4749 C 18910,4749 19494,4749 20077,4749 20093,4735 20109,4720 20124,4706 20105,4579 20087,4453 20068,4327 20053,4312 20037,4298 20022,4283 19618,4283 19215,4283 18811,4283 18811,4155 18811,4027 18811,3899 19127,3899 19442,3899 19758,3899 19773,3884 19789,3870 19804,3855 19822,3729 19840,3603 19857,3476 19843,3462 19828,3447 19814,3433 19479,3433 19145,3433 18811,3433 18811,3303 18811,3172 18811,3042 19214,3042 19616,3042 20019,3042 20035,3027 20052,3013 20068,2998 20087,2872 20105,2746 20124,2620 20109,2605 20093,2591 20077,2576 19494,2576 18910,2576 18327,2576 18312,2591 18298,2605 18283,2620 18283,3315 18283,4010 18283,4706 18298,4720 18312,4735 18327,4749 Z"/>
        </g>
       </g>
      </g>
     </g>
    </g>
   </g>
  </g>
 </g>
</svg>